<svg xmlns="http://www.w3.org/2000/svg" width="170.001" height="40.55" viewBox="0 0 170.001 40.55"><defs><style>.a{fill:none;}.b{fill:#fff;}</style></defs><g transform="translate(-292 -1785)"><rect class="a" width="170" height="40.55" transform="translate(292 1785)"/><g transform="translate(292.001 1785)"><path class="b" d="M34.969,6.207l.213,1.29h0a24.239,24.239,0,0,1,.234,3.624,33.458,33.458,0,0,1-.963,7.95,29.8,29.8,0,0,1-4.435,9.877,30.774,30.774,0,0,1-10.885,9.538l-.616.332-.616-.332A30.774,30.774,0,0,1,7.016,28.949a29.807,29.807,0,0,1-4.435-9.877,33.458,33.458,0,0,1-.962-7.95A24.236,24.236,0,0,1,1.852,7.5h0l.213-1.29a.809.809,0,0,0-1.6-.264L.255,7.234h0A25.7,25.7,0,0,0,0,11.123,35.071,35.071,0,0,0,1.01,19.46,31.425,31.425,0,0,0,5.687,29.873,32.4,32.4,0,0,0,17.133,39.912l1,.539a.807.807,0,0,0,.768,0l1-.539A32.4,32.4,0,0,0,31.348,29.873,31.423,31.423,0,0,0,36.025,19.46a35.071,35.071,0,0,0,1.01-8.338,25.712,25.712,0,0,0-.255-3.889h0l-.213-1.29a.809.809,0,0,0-1.6.264Z"/><path class="b" d="M6.486,5.328,18.517,1.656l12.3,3.754a.809.809,0,1,0,.473-1.548L18.754.035a.806.806,0,0,0-.473,0L6.014,3.78a.809.809,0,1,0,.473,1.548Z"/><path class="b" d="M.547,6.445,17.8,40.108a.809.809,0,0,0,1.434.013L29.749,20.448l.016-.031L36.5,6.426a.809.809,0,1,0-1.459-.7L28.313,19.7,18.533,37.994,1.987,5.706a.809.809,0,0,0-1.44.738Z"/><path class="b" d="M8.8,21.438H27.983a.809.809,0,0,0,0-1.619H8.8a.809.809,0,1,0,0,1.619"/><path class="b" d="M62.3,14.453H49.823a.819.819,0,0,0-.814.814V25.282a.82.82,0,0,0,.814.814H62.3v1.69H49.823a2.493,2.493,0,0,1-2.5-2.5V15.267a2.493,2.493,0,0,1,2.5-2.5H62.3Z"/><path class="b" d="M85.73,12.763v1.69H73.712v4.966h9.66v1.711h-9.66V26.1H85.73v1.69H72.022V12.763Z"/><path class="b" d="M110.475,15.288v4.4a2.493,2.493,0,0,1-2.5,2.5h-2.295l4.715,5.592h-2.232l-4.695-5.592H97.956a8,8,0,0,1-.814-.084v5.675h-1.69v-15h12.519a2.493,2.493,0,0,1,2.5,2.5Zm-12.519,5.2h10.015a.783.783,0,0,0,.793-.793v-4.4a.8.8,0,0,0-.229-.574.751.751,0,0,0-.564-.24H97.956a.819.819,0,0,0-.814.814v4.4a.75.75,0,0,0,.24.564.8.8,0,0,0,.574.229Z"/><path class="b" d="M119.447,12.763h15.022v1.69h-6.656V27.785h-1.69V14.453h-6.676Z"/><path class="b" d="M143.566,27.785V12.763h1.69V27.785Z"/><path class="b" d="M167.809,12.763h2.17l-6.28,7.511,6.3,7.511h-2.191l-5.591-6.656h-4.841v6.656h-1.711V12.763h1.711v6.656h4.841Z"/></g></g></svg>