<svg xmlns="http://www.w3.org/2000/svg" width="348" height="168" viewBox="0 0 348 168"><defs><style>.a{opacity:0.15;}.b{fill:#fff;}</style></defs><g class="a" transform="translate(-1086 -1748)"><rect class="b" width="8" height="8" transform="translate(1426 1908)"/><rect class="b" width="8" height="8" transform="translate(1426 1888)"/><rect class="b" width="8" height="8" transform="translate(1426 1868)"/><rect class="b" width="8" height="8" transform="translate(1426 1848)"/><rect class="b" width="8" height="8" transform="translate(1426 1828)"/><rect class="b" width="8" height="8" transform="translate(1426 1808)"/><rect class="b" width="8" height="8" transform="translate(1426 1788)"/><rect class="b" width="8" height="8" transform="translate(1426 1768)"/><rect class="b" width="8" height="8" transform="translate(1426 1748)"/><rect class="b" width="8" height="8" transform="translate(1406 1908)"/><rect class="b" width="8" height="8" transform="translate(1406 1888)"/><rect class="b" width="8" height="8" transform="translate(1406 1868)"/><rect class="b" width="8" height="8" transform="translate(1406 1848)"/><rect class="b" width="8" height="8" transform="translate(1406 1828)"/><rect class="b" width="8" height="8" transform="translate(1406 1808)"/><rect class="b" width="8" height="8" transform="translate(1406 1788)"/><rect class="b" width="8" height="8" transform="translate(1406 1768)"/><rect class="b" width="8" height="8" transform="translate(1406 1748)"/><rect class="b" width="8" height="8" transform="translate(1386 1908)"/><rect class="b" width="8" height="8" transform="translate(1386 1888)"/><rect class="b" width="8" height="8" transform="translate(1386 1868)"/><rect class="b" width="8" height="8" transform="translate(1386 1848)"/><rect class="b" width="8" height="8" transform="translate(1386 1828)"/><rect class="b" width="8" height="8" transform="translate(1386 1808)"/><rect class="b" width="8" height="8" transform="translate(1386 1788)"/><rect class="b" width="8" height="8" transform="translate(1386 1768)"/><rect class="b" width="8" height="8" transform="translate(1366 1908)"/><rect class="b" width="8" height="8" transform="translate(1366 1888)"/><rect class="b" width="8" height="8" transform="translate(1366 1868)"/><rect class="b" width="8" height="8" transform="translate(1366 1848)"/><rect class="b" width="8" height="8" transform="translate(1366 1828)"/><rect class="b" width="8" height="8" transform="translate(1366 1808)"/><rect class="b" width="8" height="8" transform="translate(1366 1788)"/><rect class="b" width="8" height="8" transform="translate(1366 1768)"/><rect class="b" width="8" height="8" transform="translate(1346 1908)"/><rect class="b" width="8" height="8" transform="translate(1346 1888)"/><rect class="b" width="8" height="8" transform="translate(1346 1868)"/><rect class="b" width="8" height="8" transform="translate(1346 1848)"/><rect class="b" width="8" height="8" transform="translate(1346 1828)"/><rect class="b" width="8" height="8" transform="translate(1346 1808)"/><rect class="b" width="8" height="8" transform="translate(1346 1788)"/><rect class="b" width="8" height="8" transform="translate(1326 1908)"/><rect class="b" width="8" height="8" transform="translate(1326 1888)"/><rect class="b" width="8" height="8" transform="translate(1326 1868)"/><rect class="b" width="8" height="8" transform="translate(1326 1848)"/><rect class="b" width="8" height="8" transform="translate(1326 1828)"/><rect class="b" width="8" height="8" transform="translate(1326 1808)"/><rect class="b" width="8" height="8" transform="translate(1326 1788)"/><rect class="b" width="8" height="8" transform="translate(1306 1908)"/><rect class="b" width="8" height="8" transform="translate(1306 1888)"/><rect class="b" width="8" height="8" transform="translate(1306 1868)"/><rect class="b" width="8" height="8" transform="translate(1306 1848)"/><rect class="b" width="8" height="8" transform="translate(1306 1828)"/><rect class="b" width="8" height="8" transform="translate(1306 1808)"/><rect class="b" width="8" height="8" transform="translate(1286 1908)"/><rect class="b" width="8" height="8" transform="translate(1286 1888)"/><rect class="b" width="8" height="8" transform="translate(1286 1868)"/><rect class="b" width="8" height="8" transform="translate(1286 1848)"/><rect class="b" width="8" height="8" transform="translate(1286 1828)"/><rect class="b" width="8" height="8" transform="translate(1286 1808)"/><rect class="b" width="8" height="8" transform="translate(1266 1908)"/><rect class="b" width="8" height="8" transform="translate(1266 1888)"/><rect class="b" width="8" height="8" transform="translate(1266 1868)"/><rect class="b" width="8" height="8" transform="translate(1266 1848)"/><rect class="b" width="8" height="8" transform="translate(1266 1828)"/><rect class="b" width="8" height="8" transform="translate(1246 1908)"/><rect class="b" width="8" height="8" transform="translate(1246 1888)"/><rect class="b" width="8" height="8" transform="translate(1246 1868)"/><rect class="b" width="8" height="8" transform="translate(1246 1848)"/><rect class="b" width="8" height="8" transform="translate(1246 1828)"/><rect class="b" width="8" height="8" transform="translate(1226 1908)"/><rect class="b" width="8" height="8" transform="translate(1226 1888)"/><rect class="b" width="8" height="8" transform="translate(1226 1868)"/><rect class="b" width="8" height="8" transform="translate(1226 1848)"/><rect class="b" width="8" height="8" transform="translate(1206 1908)"/><rect class="b" width="8" height="8" transform="translate(1206 1888)"/><rect class="b" width="8" height="8" transform="translate(1206 1868)"/><rect class="b" width="8" height="8" transform="translate(1206 1848)"/><rect class="b" width="8" height="8" transform="translate(1186 1908)"/><rect class="b" width="8" height="8" transform="translate(1186 1888)"/><rect class="b" width="8" height="8" transform="translate(1186 1868)"/><rect class="b" width="8" height="8" transform="translate(1166 1908)"/><rect class="b" width="8" height="8" transform="translate(1166 1888)"/><rect class="b" width="8" height="8" transform="translate(1166 1868)"/><rect class="b" width="8" height="8" transform="translate(1146 1908)"/><rect class="b" width="8" height="8" transform="translate(1146 1888)"/><rect class="b" width="8" height="8" transform="translate(1126 1908)"/><rect class="b" width="8" height="8" transform="translate(1126 1888)"/><rect class="b" width="8" height="8" transform="translate(1106 1908)"/><rect class="b" width="8" height="8" transform="translate(1086 1908)"/></g></svg>