<svg id="Slate_Logo" xmlns="http://www.w3.org/2000/svg" width="100" height="30.86575" viewBox="0 0 100 30.86575">
  <defs>
    <style>
      .cls-1 {
        fill: #2c0022;
      }
    </style>
  </defs>
  <path class="cls-1" d="M10.08152,7.01954a3.90311,3.90311,0,0,1,2.40326-.69712,6.58577,6.58577,0,0,1,2.4045.48463,9.39665,9.39665,0,0,1,2.48528,1.49116l3.02458-5.93235A20.073,20.073,0,0,0,15.86227.60131a18.44388,18.44388,0,0,0-4.5406-.60019A12.02879,12.02879,0,0,0,7.11534.69948a9.00171,9.00171,0,0,0-3.17991,1.9584,8.742,8.742,0,0,0-2.0168,3.02458,10.38229,10.38229,0,0,0-.71576,3.93419,8.29622,8.29622,0,0,0,.67848,3.58625A6.90665,6.90665,0,0,0,3.66454,15.549a9.071,9.071,0,0,0,2.52007,1.49116Q7.6,17.60308,9.07374,18.06783q1.24263.42621,2.11248.7754a6.22211,6.22211,0,0,1,1.4104.758,2.48532,2.48532,0,0,1,.7754.89221,2.62445,2.62445,0,0,1,.23237,1.14447,2.59734,2.59734,0,0,1-.91085,1.93852,3.93107,3.93107,0,0,1-2.77232.85369A8.10822,8.10822,0,0,1,6.632,23.69325,13.14192,13.14192,0,0,1,3.2582,21.44407L0,27.57027a17.61315,17.61315,0,0,0,10.27537,3.29548,14.85548,14.85548,0,0,0,4.78788-.717,10.19946,10.19946,0,0,0,3.56761-2.0168,8.47971,8.47971,0,0,0,2.20941-3.12027,10.52522,10.52522,0,0,0,.75677-4.07212,8.18022,8.18022,0,0,0-1.72478-5.4092,11.71913,11.71913,0,0,0-5.44773-3.31411q-.932-.31191-1.88135-.58156a10.5707,10.5707,0,0,1-1.70614-.64,4.0695,4.0695,0,0,1-1.22151-.86984,1.81052,1.81052,0,0,1-.46475-1.27868A2.17835,2.17835,0,0,1,10.08152,7.01954Z"/>
  <polygon class="cls-1" points="100 7.252 100 0.816 83.366 0.816 83.366 30.052 100 30.052 100 23.615 90.966 23.615 90.966 18.575 100 18.575 100 12.138 90.966 12.138 90.966 7.252 100 7.252"/>
  <polygon class="cls-1" points="24.956 0.816 24.956 30.052 42.829 30.052 42.829 23.615 32.556 23.615 32.556 0.816 24.956 0.816"/>
  <polygon class="cls-1" points="79.761 0.816 59.676 0.816 59.676 7.253 65.919 7.253 65.919 30.052 73.519 30.052 73.519 7.253 79.761 7.253 79.761 0.816"/>
  <polygon class="cls-1" points="46.493 0.816 46.493 6.583 50.414 17.838 46.493 17.838 46.493 23.615 52.427 23.615 54.669 30.052 62.773 30.052 51.645 0.816 46.493 0.816"/>
</svg>
