<svg id="Certik_Logo_black_horizontal" xmlns="http://www.w3.org/2000/svg" width="170" height="40.54827" viewBox="0 0 170 40.54827">
  <g>
    <path d="M34.9694,6.20743l.21324,1.29024.00005.00033a24.23939,24.23939,0,0,1,.2336,3.62446,33.45779,33.45779,0,0,1-.96259,7.95025,29.80478,29.80478,0,0,1-4.43507,9.87661,30.77442,30.77442,0,0,1-10.8851,9.53761l-.61607.33222-.61613-.3322A30.77433,30.77433,0,0,1,7.01624,28.94933a29.80741,29.80741,0,0,1-4.43515-9.87664,33.45817,33.45817,0,0,1-.96247-7.94988,24.236,24.236,0,0,1,.23361-3.62452l.0001-.00063.21323-1.29024a.8093.8093,0,0,0-1.597-.26391L.25537,7.23374l.0001-.00063A25.69992,25.69992,0,0,0,0,11.12281a35.071,35.071,0,0,0,1.00959,8.33761A31.42456,31.42456,0,0,0,5.68707,29.87305,32.39987,32.39987,0,0,0,17.13316,39.9117l1.00023.53931a.807.807,0,0,0,.76824,0l1.0001-.53933A32.4,32.4,0,0,0,31.3478,29.87305a31.42257,31.42257,0,0,0,4.67741-10.41262,35.0708,35.0708,0,0,0,1.0097-8.338,25.71194,25.71194,0,0,0-.25535-3.88906l.00005.00033-.21325-1.29024a.80931.80931,0,1,0-1.59695.264Z"/>
    <path d="M6.4862,5.32841,18.51748,1.65565l12.299,3.75447A.80931.80931,0,0,0,31.289,3.862L18.75378.03541a.80614.80614,0,0,0-.47258,0L6.01362,3.78031a.80932.80932,0,1,0,.47259,1.54811Z"/>
    <path d="M.54682,6.44455,17.79723,40.10773a.80933.80933,0,0,0,1.434.0125L29.7489,20.44786l.01555-.03064L36.49715,6.4264a.80931.80931,0,0,0-1.45853-.70188L28.3135,19.69957,18.53269,37.99369,1.98733,5.70637a.80931.80931,0,1,0-1.4405.73818Z"/>
    <path d="M8.80237,21.43772H27.98311a.80931.80931,0,0,0,0-1.61862H8.80237a.80931.80931,0,1,0,0,1.61862"/>
  </g>
  <g>
    <path d="M62.29989,14.453H49.823a.81892.81892,0,0,0-.81371.81371V25.2816a.81957.81957,0,0,0,.81371.81371H62.29989v1.68984H49.823a2.49281,2.49281,0,0,1-2.50354-2.50355V15.26667A2.49281,2.49281,0,0,1,49.823,12.76312H62.29989Z"/>
    <path d="M85.73025,12.76312V14.453h-12.018v4.96585h9.6601v1.71065h-9.6601v4.96585h12.018v1.68984H72.02241v-15.022Z"/>
    <path d="M110.47479,15.28747v4.4022a2.49346,2.49346,0,0,1-2.50392,2.50393h-2.29473l4.715,5.59155h-2.23231l-4.69462-5.59155H97.95631A7.9984,7.9984,0,0,1,97.1426,22.11v5.67516H95.45238V12.78393h12.51849a2.49344,2.49344,0,0,1,2.50392,2.50354Zm-12.51848,5.1951h10.01456a.78291.78291,0,0,0,.7929-.7929v-4.4022a.8027.8027,0,0,0-.22925-.57387.75146.75146,0,0,0-.56365-.23984H97.95631a.81892.81892,0,0,0-.81371.81371v4.4022a.7495.7495,0,0,0,.23984.56366A.79921.79921,0,0,0,97.95631,20.48257Z"/>
    <path d="M119.44677,12.76312h15.02241V14.453h-6.65607V27.78515h-1.69022V14.453h-6.67612Z"/>
    <path d="M143.56562,27.78515v-15.022h1.69021v15.022Z"/>
    <path d="M167.80893,12.76312h2.16989l-6.27967,7.511L170,27.78515h-2.19107l-5.59118-6.65569h-4.84064v6.65569h-1.71064v-15.022h1.71064v6.65569h4.84064Z"/>
  </g>
</svg>
