<svg id="Certik_Logo_black_vertical" xmlns="http://www.w3.org/2000/svg" width="170" height="162.58972" viewBox="0 0 170 162.58972">
  <g>
    <path d="M137.05623,19.64117l.67474,4.0825.00016.001a76.70079,76.70079,0,0,1,.73913,11.46831,105.8646,105.8646,0,0,1-3.04577,25.15568,94.3063,94.3063,0,0,1-14.03316,31.251c-7.56537,10.88022-18.50168,21.58088-34.442,30.17832L85,122.82918l-1.94953-1.05113c-15.9404-8.5975-26.87661-19.29814-34.44192-30.17837A94.31432,94.31432,0,0,1,34.57514,60.34863a105.86552,105.86552,0,0,1-3.0454-25.15451,76.681,76.681,0,0,1,.7392-11.4685l.00031-.002.67467-4.0825a2.56076,2.56076,0,0,0-5.053-.835l-.6747,4.08248.00031-.002a81.31577,81.31577,0,0,0-.80834,12.30755,110.96952,110.96952,0,0,0,3.19447,26.38134,99.43154,99.43154,0,0,0,14.80021,32.947c7.98372,11.49369,19.56732,22.79094,36.217,31.76368l3.16484,1.70645a2.55361,2.55361,0,0,0,2.43084-.00009l3.16447-1.70652c16.64939-8.97255,28.23318-20.26981,36.21693-31.76352a99.42506,99.42506,0,0,0,14.8-32.947A110.96853,110.96853,0,0,0,143.59179,35.193a81.35493,81.35493,0,0,0-.808-12.30552l.00015.001-.67474-4.08249a2.56077,2.56077,0,1,0-5.053.83516Z"/>
    <path d="M46.93144,16.85984,85.00009,5.2387l38.91557,11.87967A2.56078,2.56078,0,0,0,125.411,12.22L85.74776.11205a2.55036,2.55036,0,0,0-1.4953,0L45.43614,11.96142a2.56079,2.56079,0,0,0,1.49533,4.89843Z"/>
    <path d="M28.13842,20.39145l54.5827,106.515a2.56082,2.56082,0,0,0,4.53729.03954l33.27944-62.24609.0492-.09695L141.89024,20.334a2.56076,2.56076,0,0,0-4.615-2.22083l-21.27921,44.219L85.0482,120.21729,32.69641,18.05575a2.56078,2.56078,0,0,0-4.558,2.33571Z"/>
    <path d="M54.26012,67.83193h60.69052a2.56079,2.56079,0,0,0,0-5.12157H54.26012a2.56079,2.56079,0,0,0,0,5.12157"/>
  </g>
  <g>
    <path d="M20.75856,144.11513H3.4692a1.13476,1.13476,0,0,0-1.12757,1.12757v13.87782a1.13568,1.13568,0,0,0,1.12757,1.12757H20.75856v2.34163H3.4692A3.345,3.345,0,0,1,1.01172,161.578,3.343,3.343,0,0,1,0,159.12052V145.2427a3.34378,3.34378,0,0,1,1.01172-2.45748A3.345,3.345,0,0,1,3.4692,141.7735H20.75856Z"/>
    <path d="M53.2263,141.7735v2.34163H36.5728v6.88125H49.95893v2.37046H36.5728v6.88125H53.2263v2.34163H34.23117V141.7735Z"/>
    <path d="M87.51514,145.27153v6.10018a3.45522,3.45522,0,0,1-3.46972,3.46972H80.86559l6.5337,7.74829H84.306l-6.50539-7.74829H70.16812a11.0842,11.0842,0,0,1-1.12757-.11585v7.86414H66.6984V141.80233h17.347a3.45522,3.45522,0,0,1,3.46972,3.4692Zm-17.347,7.19892h13.8773a1.0849,1.0849,0,0,0,1.09874-1.09874v-6.10018a1.11227,1.11227,0,0,0-.31767-.79522,1.04131,1.04131,0,0,0-.78107-.33235H70.16812a1.13479,1.13479,0,0,0-1.12757,1.12757v6.10018a1.0386,1.0386,0,0,0,.33235.78107A1.1075,1.1075,0,0,0,70.16812,152.47045Z"/>
    <path d="M99.94773,141.7735h20.81675v2.34163h-9.22341v18.47459h-2.34215V144.11513H99.94773Z"/>
    <path d="M133.36953,162.58972V141.7735h2.34216v20.81622Z"/>
    <path d="M166.9638,141.7735h3.00684l-8.70181,10.40811L170,162.58972h-3.0362l-7.74777-9.22288h-6.70774v9.22288h-2.37045V141.7735h2.37045v9.22288H159.216Z"/>
  </g>
</svg>
