<svg id="Coinfluence_Logo_light_BG" xmlns="http://www.w3.org/2000/svg" xmlns:xlink="http://www.w3.org/1999/xlink" width="170" height="34.98619" viewBox="0 0 170 34.98619">
  <defs>
    <style>
      .cls-1 {
        fill: #1c1c39;
      }

      .cls-2 {
        fill: url(#linear-gradient);
      }

      .cls-3 {
        fill: url(#linear-gradient-2);
      }
    </style>
    <linearGradient id="linear-gradient" x1="7.94757" y1="17.49282" x2="23.92819" y2="17.49282" gradientUnits="userSpaceOnUse">
      <stop offset="0" stop-color="#79519c"/>
      <stop offset="0.37024" stop-color="#6159a3"/>
      <stop offset="1" stop-color="#3068b0"/>
    </linearGradient>
    <linearGradient id="linear-gradient-2" x1="0" y1="17.49309" x2="34.98668" y2="17.49309" xlink:href="#linear-gradient"/>
  </defs>
  <g>
    <g>
      <path class="cls-1" d="M39.567,16.88656A8.00809,8.00809,0,0,1,47.78559,8.668a7.7331,7.7331,0,0,1,7.67368,5.72121H51.98568a4.4571,4.4571,0,0,0-4.2228-2.63357,4.82414,4.82414,0,0,0-4.92659,5.13092,4.82414,4.82414,0,0,0,4.92659,5.13092,4.4571,4.4571,0,0,0,4.2228-2.63357h3.47359a7.7331,7.7331,0,0,1-7.67368,5.72121A8.00809,8.00809,0,0,1,39.567,16.88656Z"/>
      <path class="cls-1" d="M69.37278,18.5893a6.50447,6.50447,0,1,1-13.00893,0,6.50447,6.50447,0,1,1,13.00893,0Zm-9.73967,0a3.22994,3.22994,0,1,0,6.44771,0,3.22994,3.22994,0,1,0-6.44771,0Z"/>
      <path class="cls-1" d="M74.34194,8.48637a1.90961,1.90961,0,0,1-2.02058,1.92978,1.921,1.921,0,1,1,0-3.83684A1.892,1.892,0,0,1,74.34194,8.48637Zm-3.65521,3.85955h3.24656V24.83268H70.68673Z"/>
      <path class="cls-1" d="M87.23665,17.00007v7.83261H83.99009V17.70387c0-1.63463-.613-2.54275-2.33842-2.54275-1.839,0-2.8152,1.067-2.8152,3.11033v6.56123H75.58991V12.34592h3.24656v1.70274a4.48513,4.48513,0,0,1,3.88225-1.97518C85.53391,12.07348,87.23665,13.93514,87.23665,17.00007Z"/>
      <path class="cls-1" d="M93.43179,12.30051v.04541h4.15468v3.06493H93.43179v9.42183H90.18523V15.41085H87.96032V12.34592h2.22491v-.20433a4.747,4.747,0,0,1,5.08552-5.06281,7.768,7.768,0,0,1,2.95141.56758l-.59028,2.63357-.43136-.11352A5.75321,5.75321,0,0,0,95.634,9.91668C94.15829,9.91668,93.43179,10.68858,93.43179,12.30051Z"/>
      <path class="cls-1" d="M98.87914,7.35121h3.24655V24.83268H98.87914Z"/>
      <path class="cls-1" d="M115.20132,12.34592V24.83268h-3.24656V23.10723a4.46384,4.46384,0,0,1-3.85954,1.99789c-2.74709,0-4.44983-1.88437-4.44983-4.9266v-7.8326H106.892v7.1288c0,1.63463.613,2.54276,2.293,2.54276,1.79355,0,2.76979-1.067,2.76979-3.11034V12.34592Z"/>
      <path class="cls-1" d="M129.41139,19.42932h-9.58075a3.09453,3.09453,0,0,0,3.24656,2.99682,2.88631,2.88631,0,0,0,2.76979-1.56652h3.36007a6.02886,6.02886,0,0,1-6.10716,4.2455A6.29571,6.29571,0,0,1,116.516,18.612a6.31529,6.31529,0,0,1,6.51581-6.53852C127.16378,12.07348,129.72924,15.32,129.41139,19.42932Zm-9.42182-2.38384h5.97094a2.906,2.906,0,0,0-2.95142-2.293A3.02341,3.02341,0,0,0,119.98957,17.04548Z"/>
      <path class="cls-1" d="M142.304,17.00007v7.83261h-3.24656V17.70387c0-1.63463-.613-2.54275-2.33842-2.54275-1.839,0-2.8152,1.067-2.8152,3.11033v6.56123h-3.24656V12.34592h3.24656v1.70274a4.48513,4.48513,0,0,1,3.88225-1.97518C140.60123,12.07348,142.304,13.93514,142.304,17.00007Z"/>
      <path class="cls-1" d="M143.52711,18.5893a6.34919,6.34919,0,0,1,6.51582-6.51582,5.9782,5.9782,0,0,1,6.22067,5.01741h-3.33737a2.814,2.814,0,0,0-2.8833-2.02059,3.18312,3.18312,0,0,0-3.22386,3.519,3.19125,3.19125,0,0,0,3.20115,3.519,2.84167,2.84167,0,0,0,2.906-2.04328h3.33737a5.97,5.97,0,0,1-6.24338,5.04011A6.34382,6.34382,0,0,1,143.52711,18.5893Z"/>
      <path class="cls-1" d="M169.9735,19.42932h-9.58075a3.09453,3.09453,0,0,0,3.24655,2.99682,2.88631,2.88631,0,0,0,2.76979-1.56652h3.36008a6.02887,6.02887,0,0,1-6.10716,4.2455,6.29572,6.29572,0,0,1-6.58393-6.49312,6.31529,6.31529,0,0,1,6.51582-6.53852C167.72588,12.07348,170.29134,15.32,169.9735,19.42932Zm-9.42183-2.38384h5.97094a2.906,2.906,0,0,0-2.95142-2.293A3.02341,3.02341,0,0,0,160.55167,17.04548Z"/>
    </g>
    <g>
      <path class="cls-2" d="M20.59786,20.59786h-.0006a16.28457,16.28457,0,0,1-3.10367,2.432,16.34926,16.34926,0,0,1-5.53668-5.53678,16.36387,16.36387,0,0,1,5.53668-5.53673,16.36628,16.36628,0,0,1,3.10427,2.432c.28526.28531.5376.59873.80036.90343L23.92809,12.81c-.27316-.30956-.55039-.61594-.84329-.90864a19.88042,19.88042,0,0,0-4.769-3.51981L17.49359,7.947l-.82148.43454A19.87884,19.87884,0,0,0,8.38206,16.671l-.43449.82212.43449.82158a19.87534,19.87534,0,0,0,8.29005,8.29l.82148.434.82217-.434a19.86267,19.86267,0,0,0,4.769-3.51977h.0006c.2926-.29265.56963-.59893.84279-.90838l-2.53007-2.482C21.13546,19.99912,20.88312,20.3125,20.59786,20.59786Z"/>
      <path class="cls-3" d="M34.55219,16.67156A38.911,38.911,0,0,0,27.658,7.32876,38.91145,38.91145,0,0,0,18.31517.43454L17.49359,0l-.82148.43454A38.94043,38.94043,0,0,0,.43459,16.671L0,17.49309l.43459.82213a38.92649,38.92649,0,0,0,6.89467,9.34285,38.89863,38.89863,0,0,0,9.34285,6.89417l.82148.434.82158-.434A38.91151,38.91151,0,0,0,27.658,27.65807h.00059a38.94691,38.94691,0,0,0,6.89358-9.3434l.43449-.82158Zm-9.38171,8.49951a35.40724,35.40724,0,0,1-7.67689,5.82358A35.40588,35.40588,0,0,1,9.8162,25.17107a35.427,35.427,0,0,1-5.82352-7.678A35.41092,35.41092,0,0,1,17.49359,3.99273a35.40176,35.40176,0,0,1,7.67738,5.823,35.39866,35.39866,0,0,1,5.823,7.67738A35.38753,35.38753,0,0,1,25.17048,25.17107Z"/>
    </g>
  </g>
</svg>
