<svg id="Bscscan_Logo_light_background" xmlns="http://www.w3.org/2000/svg" width="144" height="36.60151" viewBox="0 0 144 36.60151">
  <defs>
    <style>
      .cls-1 {
        fill: #12161c;
      }

      .cls-2 {
        fill: #f0b90b;
      }
    </style>
  </defs>
  <g id="Logo">
    <path id="Path_1" data-name="Path 1" class="cls-1" d="M7.62389,17.39879A1.55384,1.55384,0,0,1,9.178,15.84525l.007,0,2.58809.00846A1.55594,1.55594,0,0,1,13.329,17.40967h0v9.78689c.29149-.0864.66454-.17852,1.075-.27519a1.29644,1.29644,0,0,0,.99953-1.26172V13.52058a1.55624,1.55624,0,0,1,1.55593-1.55624h2.596a1.55624,1.55624,0,0,1,1.55594,1.55624v11.267s.64944-.26279,1.28166-.52982a1.29887,1.29887,0,0,0,.79292-1.19527V9.63059a1.55593,1.55593,0,0,1,1.55563-1.55593h2.59322a1.55594,1.55594,0,0,1,1.55443,1.55593v11.0607a30.41352,30.41352,0,0,0,6.33489-5.94554,2.61164,2.61164,0,0,0,.39752-2.43826A18.316,18.316,0,1,0,2.43835,27.44333a2.31621,2.31621,0,0,0,2.2099,1.14483c.49055-.0432,1.10132-.10421,1.82749-.1894a1.29585,1.29585,0,0,0,1.14935-1.28619V17.39879"/>
    <path id="Path_2" data-name="Path 2" class="cls-2" d="M7.56862,33.09437A18.322,18.322,0,0,0,36.66921,18.27478c0-.42289-.01963-.83914-.04772-1.25418C29.92684,27.00534,17.56575,31.67315,7.56862,33.09437"/>
  </g>
  <path id="Text" class="cls-1" d="M52.43819,17.93646a4.2223,4.2223,0,0,1,2.50109,1.47408,4.13137,4.13137,0,0,1,.95453,2.7065,4.24574,4.24574,0,0,1-1.42575,3.371,6.1043,6.1043,0,0,1-4.13224,1.2445H43.54541V9.672H50.215a5.94629,5.94629,0,0,1,3.92684,1.14784,3.89974,3.89974,0,0,1,1.36533,3.15356,3.92892,3.92892,0,0,1-.84578,2.62192A4.099,4.099,0,0,1,52.43819,17.93646Zm-6.13795-.91827h3.40729a3.22747,3.22747,0,0,0,2.21111-.67663,2.39083,2.39083,0,0,0,.7612-1.88488,2.36156,2.36156,0,0,0-.7612-1.86072,3.38911,3.38911,0,0,0-2.30777-.67662H46.30024ZM49.78,24.46106a3.69984,3.69984,0,0,0,2.4286-.71287,2.44913,2.44913,0,0,0,.85786-1.99363,2.46907,2.46907,0,0,0-.86994-2.00571,3.707,3.707,0,0,0-2.44068-.72495H46.30024v5.43716ZM62.85338,13.24842a5.62308,5.62308,0,0,1,3.75768,1.19618,5.06108,5.06108,0,0,1,1.72781,3.20188H65.729a2.81675,2.81675,0,0,0-.93036-1.752A2.95838,2.95838,0,0,0,62.78088,15.23a2.36821,2.36821,0,0,0-1.607.49538,1.68887,1.68887,0,0,0-.56788,1.34117,1.32912,1.32912,0,0,0,.41081,1.01494,2.86721,2.86721,0,0,0,1.027.60412,17.68675,17.68675,0,0,0,1.752.48331,17.50351,17.50351,0,0,1,2.4286.70079,3.93475,3.93475,0,0,1,1.5949,1.14784,3.20557,3.20557,0,0,1,.66454,2.13862,3.333,3.333,0,0,1-1.26867,2.7065,5.2348,5.2348,0,0,1-3.41937,1.0391,6.49958,6.49958,0,0,1-4.0235-1.15993,4.77469,4.77469,0,0,1-1.84864-3.23813H60.606a2.53223,2.53223,0,0,0,.96661,1.76406,3.45231,3.45231,0,0,0,2.2232.67662,2.22164,2.22164,0,0,0,1.55865-.51955,1.70727,1.70727,0,0,0,.56788-1.317,1.456,1.456,0,0,0-.435-1.1116,3.01672,3.01672,0,0,0-1.08744-.64038,15.10763,15.10763,0,0,0-1.78822-.47122,19.81144,19.81144,0,0,1-2.3561-.67662,3.67251,3.67251,0,0,1-1.54657-1.09951,3.108,3.108,0,0,1-.64038-2.06613,3.3922,3.3922,0,0,1,1.26867-2.74274A5.35417,5.35417,0,0,1,62.85338,13.24842Zm14.30577,0a6.59188,6.59188,0,0,1,4.27724,1.36533,5.88842,5.88842,0,0,1,2.10237,3.70936h-2.924a3.12605,3.12605,0,0,0-1.172-1.96946,3.722,3.722,0,0,0-2.33194-.71288,3.50789,3.50789,0,0,0-2.65817,1.12368A4.62752,4.62752,0,0,0,73.38939,20.063a4.67293,4.67293,0,0,0,1.06327,3.31063,3.49009,3.49009,0,0,0,2.65817,1.13576,3.67948,3.67948,0,0,0,2.33194-.725,3.1756,3.1756,0,0,0,1.172-1.98154h2.924a5.93861,5.93861,0,0,1-2.10237,3.72144,6.55355,6.55355,0,0,1-4.27724,1.37741,6.95049,6.95049,0,0,1-3.41937-.82162,5.84377,5.84377,0,0,1-2.33194-2.36818,7.49122,7.49122,0,0,1-.84578-3.64894,7.43909,7.43909,0,0,1,.84578-3.62478A5.84377,5.84377,0,0,1,73.73978,14.07,6.95049,6.95049,0,0,1,77.15915,13.24842Zm20.25041,8.94111a4.682,4.682,0,0,1-.60413,2.33194,4.39237,4.39237,0,0,1-1.83655,1.72781,6.39165,6.39165,0,0,1-3.02065.65246,7.55577,7.55577,0,0,1-3.1173-.61621,5.42444,5.42444,0,0,1-2.199-1.72781,4.90524,4.90524,0,0,1-.94244-2.56151h2.94815a3.02425,3.02425,0,0,0,.95452,1.909,3.09891,3.09891,0,0,0,2.23528.79745,2.65817,2.65817,0,0,0,1.94529-.67662,2.33312,2.33312,0,0,0,.68871-1.7399,2.23858,2.23858,0,0,0-.50747-1.51032,3.55808,3.55808,0,0,0-1.25659-.93036q-.74911-.33831-2.054-.77328a17.90318,17.90318,0,0,1-2.59775-1.01494,4.72433,4.72433,0,0,1-1.70365-1.47407,4.2251,4.2251,0,0,1-.70079-2.53735,4.32857,4.32857,0,0,1,.67663-2.41651,4.3984,4.3984,0,0,1,1.93321-1.607,6.97771,6.97771,0,0,1,2.89982-.56788,6.34648,6.34648,0,0,1,4.14433,1.25659,4.73513,4.73513,0,0,1,1.752,3.28646H94.07477a2.89984,2.89984,0,0,0-.9062-1.65531,2.83935,2.83935,0,0,0-2.01779-.68871,2.78712,2.78712,0,0,0-1.86071.59205,2.106,2.106,0,0,0-.7008,1.70364,2.14106,2.14106,0,0,0,.48331,1.43783,3.35948,3.35948,0,0,0,1.22034.89411q.737.32624,2.01779.7612a17.72871,17.72871,0,0,1,2.64608,1.027,4.79376,4.79376,0,0,1,1.73989,1.51033A4.37146,4.37146,0,0,1,97.40956,22.18953Zm8.67529-8.94111a6.59192,6.59192,0,0,1,4.27724,1.36533,5.88842,5.88842,0,0,1,2.10237,3.70936h-2.924a3.126,3.126,0,0,0-1.172-1.96946,3.722,3.722,0,0,0-2.33194-.71288,3.50787,3.50787,0,0,0-2.65816,1.12368,4.62747,4.62747,0,0,0-1.06327,3.29855,4.67288,4.67288,0,0,0,1.06327,3.31063,3.49006,3.49006,0,0,0,2.65817,1.13576,3.67943,3.67943,0,0,0,2.33193-.725,3.17556,3.17556,0,0,0,1.172-1.98154h2.924a5.93863,5.93863,0,0,1-2.10236,3.72144,6.55359,6.55359,0,0,1-4.27724,1.37741,6.95046,6.95046,0,0,1-3.41937-.82162,5.84368,5.84368,0,0,1-2.33193-2.36818,7.49112,7.49112,0,0,1-.84579-3.64894,7.439,7.439,0,0,1,.84579-3.62478A5.84368,5.84368,0,0,1,102.66548,14.07,6.95049,6.95049,0,0,1,106.08485,13.24842Zm14.37828,0a5.26745,5.26745,0,0,1,3.09313.89411,4.812,4.812,0,0,1,1.81239,2.36819V13.41758h2.75483v13.315h-2.75483V23.63944a4.81188,4.81188,0,0,1-1.81239,2.36819,5.26738,5.26738,0,0,1-3.09313.89411,5.90379,5.90379,0,0,1-3.10523-.82162,5.615,5.615,0,0,1-2.13861-2.36818A8.06847,8.06847,0,0,1,114.446,20.063a8.01067,8.01067,0,0,1,.77329-3.62478A5.615,5.615,0,0,1,117.3579,14.07,5.90379,5.90379,0,0,1,120.46313,13.24842Zm.84577,2.41652a3.83621,3.83621,0,0,0-2.93606,1.172,4.52808,4.52808,0,0,0-1.09952,3.226,4.52808,4.52808,0,0,0,1.09952,3.22605,3.83621,3.83621,0,0,0,2.93606,1.172,4.00088,4.00088,0,0,0,2.07821-.54372,3.86217,3.86217,0,0,0,1.44991-1.53449,4.83521,4.83521,0,0,0,.53163-2.31985,4.85358,4.85358,0,0,0-.53163-2.30777,3.84317,3.84317,0,0,0-1.44991-1.54657A4.00079,4.00079,0,0,0,121.3089,15.66494ZM138.877,13.20009a4.855,4.855,0,0,1,3.72144,1.49824A6.02832,6.02832,0,0,1,144,18.97557v7.757h-2.75483v-7.467a3.8894,3.8894,0,0,0-.91828-2.76691,3.27917,3.27917,0,0,0-2.51318-.97869,3.44925,3.44925,0,0,0-2.634,1.05118,4.33252,4.33252,0,0,0-.99077,3.08106v7.08039h-2.75483v-13.315h2.75483v2.924a4.4675,4.4675,0,0,1,1.78823-2.31985A5.17883,5.17883,0,0,1,138.877,13.20009Z"/>
</svg>
