<svg id="Binance_Logo" xmlns="http://www.w3.org/2000/svg" width="150" height="30.00058" viewBox="0 0 150 30.00058">
  <defs>
    <style>
      .cls-1 {
        fill: #f3ba2f;
      }
    </style>
  </defs>
  <polygon class="cls-1" points="9.174 12.606 15 6.781 20.83 12.61 24.22 9.22 15 0 5.784 9.216 9.174 12.606"/>
  <rect class="cls-1" x="0.99287" y="12.60275" width="4.79442" height="4.79418" transform="translate(-9.61356 6.7905) rotate(-45)"/>
  <polygon class="cls-1" points="9.174 17.394 15 23.22 20.829 17.391 24.221 20.779 24.22 20.781 15 30.001 5.784 20.784 5.779 20.78 9.174 17.394"/>
  <rect class="cls-1" x="24.21373" y="12.60435" width="4.79442" height="4.79418" transform="translate(-2.81346 23.2106) rotate(-45)"/>
  <polygon class="cls-1" points="18.439 14.999 18.44 14.999 15 11.558 12.458 14.101 12.458 14.101 12.166 14.393 11.563 14.995 11.563 14.995 11.559 15 11.563 15.005 15 18.442 18.44 15.002 18.442 15 18.439 14.999"/>
  <path class="cls-1" d="M35.28594,7.26942h7.3732a5.62468,5.62468,0,0,1,4.15162,1.4089,3.67717,3.67717,0,0,1,1.08855,2.70456v.0455a3.9039,3.9039,0,0,1-.16919,1.20442,3.7454,3.7454,0,0,1-.45186.94306,3.59292,3.59292,0,0,1-.6547.73858,4.38986,4.38986,0,0,1-.8016.54546,5.36427,5.36427,0,0,1,2.17189,1.42052,3.63614,3.63614,0,0,1,.79189,2.48869v.04526a4.12925,4.12925,0,0,1-.41964,1.90935,3.70925,3.70925,0,0,1-1.20276,1.36365,5.63542,5.63542,0,0,1-1.88329.8182,10.14542,10.14542,0,0,1-2.4387.27249H35.28594ZM41.922,13.701a3.64416,3.64416,0,0,0,1.84087-.3976,1.37378,1.37378,0,0,0,.68171-1.284v-.04549a1.40077,1.40077,0,0,0-.591-1.2158,2.9191,2.9191,0,0,0-1.70438-.42059H38.69472V13.701Zm.93193,6.40929A3.36226,3.36226,0,0,0,44.672,19.6899a1.44014,1.44014,0,0,0,.6592-1.307v-.04525a1.50145,1.50145,0,0,0-.6137-1.26153,3.30671,3.30671,0,0,0-1.97736-.46561H38.69472v3.5h4.1592Z"/>
  <path class="cls-1" d="M53.17692,7.26942h3.50023V23.17853H53.17692Z"/>
  <path class="cls-1" d="M61.97845,7.26942h3.2268L72.66,17.065V7.26941h3.45451V23.17853h-2.977L65.43273,13.065V23.17853H61.97845Z"/>
  <path class="cls-1" d="M86.71091,7.15592h3.227l6.8185,16.02261H93.09721l-1.45464-3.568H84.9153l-1.45441,3.568H79.89218Zm3.68174,9.36335-2.11383-5.1589-2.11313,5.1589Z"/>
  <path class="cls-1" d="M100.53462,7.26942h3.22751l7.45423,9.79554V7.26941h3.45451V23.17853h-2.977L103.98913,13.065V23.17853h-3.45451Z"/>
  <path class="cls-1" d="M127.26718,23.451a8.2407,8.2407,0,0,1-3.25025-.63622,7.84358,7.84358,0,0,1-4.2952-4.34094,8.38,8.38,0,0,1-.6137-3.20476v-.04526a8.2937,8.2937,0,0,1,.6137-3.19314,8.20053,8.20053,0,0,1,1.70438-2.61357,7.90039,7.90039,0,0,1,2.61334-1.77287,8.51027,8.51027,0,0,1,3.364-.64758,10.54844,10.54844,0,0,1,2.0335.18174,8.51712,8.51712,0,0,1,1.67075.5,7.27733,7.27733,0,0,1,1.38663.7727,9.4463,9.4463,0,0,1,1.18144,1.00017l-2.22686,2.56807a8.44148,8.44148,0,0,0-1.898-1.31815,4.837,4.837,0,0,0-2.17047-.47722,4.4053,4.4053,0,0,0-3.31825,1.4544,4.99358,4.99358,0,0,0-.95467,1.57952,5.37656,5.37656,0,0,0-.34026,1.92048v.04526a5.465,5.465,0,0,0,.34026,1.93162,5.05434,5.05434,0,0,0,.94354,1.59089,4.37091,4.37091,0,0,0,3.3294,1.47739,4.87178,4.87178,0,0,0,2.30648-.5,8.92564,8.92564,0,0,0,1.87523-1.36365L133.78953,20.61a11.56725,11.56725,0,0,1-1.27265,1.18167,7.56461,7.56461,0,0,1-1.4435.898,7.47915,7.47915,0,0,1-1.71552.568A10.35255,10.35255,0,0,1,127.26718,23.451Z"/>
  <path class="cls-1" d="M137.90864,7.26942h11.97715v3.11377h-8.52241v3.22727h7.5V16.724h-7.5v3.341H150v3.11353H137.90864Z"/>
</svg>
