<svg id="Coingecko_Logo" xmlns="http://www.w3.org/2000/svg" width="190" height="50.21649" viewBox="0 0 190 50.21649">
  <defs>
    <style>
      .cls-1 {
        fill: #4c4c4c;
      }

      .cls-2 {
        fill: #8dc63f;
      }

      .cls-3 {
        fill: #f9e988;
      }

      .cls-4 {
        fill: #fff;
      }

      .cls-5 {
        fill: #8bc53f;
      }

      .cls-6 {
        fill: #009345;
      }

      .cls-7 {
        fill: #58595b;
      }
    </style>
  </defs>
  <g id="Coin_Gecko_Vector_Text" data-name="Coin Gecko Vector Text">
    <path class="cls-1" d="M78.53761,19.72113A4.19193,4.19193,0,0,0,74.171,16.23327c-3.759,0-5.33095,3.315-5.33095,6.67915s1.572,6.681,5.33095,6.681c2.72915,0,4.22473-2.03777,4.46853-4.59226h2.99662a7.18138,7.18138,0,0,1-7.4597,7.0958c-5.25635,0-8.40034-4.17561-8.40034-9.18634S68.90914,13.717,74.1655,13.717c3.95364.02366,7.07215,2.21062,7.4415,5.99323Z"/>
    <path class="cls-1" d="M83.45009,25.31044c0-3.88086,2.33252-6.67915,6.40988-6.67915s6.40987,2.79829,6.40987,6.67915S93.93732,32.01689,89.86,32.01689,83.45009,29.21677,83.45009,25.31044Zm10.01964,0c0-2.18332-1.1044-4.46854-3.60977-4.46854s-3.60977,2.2834-3.60977,4.46854,1.1044,4.49583,3.60977,4.49583S93.46973,27.52106,93.46973,25.31044Z"/>
    <path class="cls-1" d="M98.677,14.13545h2.80011V16.7882H98.677Zm0,4.83971h2.80011V31.673H98.677Z"/>
    <path class="cls-1" d="M104.52281,18.97516h2.65274V20.8419l.04913.04913a4.54861,4.54861,0,0,1,3.95546-2.26156c2.751,0,4.494,1.47374,4.494,4.32116v8.72056H112.874V23.68932c-.04912-1.98864-.83512-2.84742-2.47989-2.84742a3.09463,3.09463,0,0,0-3.07121,3.33867V31.673h-2.80012Z"/>
    <path class="cls-1" d="M134.3161,31.673h-1.965l-.46577-2.06324a6.30909,6.30909,0,0,1-5.27637,2.4799c-5.25272.00363-8.404-4.18107-8.404-9.18634s3.15127-9.18635,8.40034-9.18635c3.82082,0,7.0485,2.03777,7.51428,5.99323H131.123c-.29475-2.30886-2.307-3.48786-4.51767-3.48786-3.759,0-5.331,3.315-5.331,6.67916s1.572,6.681,5.331,6.681c3.14218.04913,4.86154-1.84127,4.91249-4.81423H126.851v-2.3307h7.45969Z"/>
    <path class="cls-1" d="M139.45056,26.04731c0,1.99047,1.08075,3.759,3.41327,3.759a2.94177,2.94177,0,0,0,3.093-2.11236h2.65456a5.56055,5.56055,0,0,1-5.74761,4.323c-3.97729,0-6.21339-2.77646-6.21339-6.681,0-3.61158,2.36527-6.70462,6.1406-6.70462,4.00277,0,6.459,3.60976,5.99323,7.416Zm6.5336-1.84127a3.26823,3.26823,0,1,0-6.5336,0Z"/>
    <path class="cls-1" d="M159.49348,23.22355a2.6845,2.6845,0,0,0-2.89836-2.38165c-1.45555,0-3.48786.76053-3.48786,4.61591,0,2.11237.93337,4.34846,3.36414,4.34846a3.01819,3.01819,0,0,0,3.02208-2.89836h2.80012c-.51673,3.29136-2.54721,5.109-5.8222,5.109-3.97911,0-6.16426-2.82559-6.16426-6.55908,0-3.83173,2.08871-6.82653,6.2625-6.82653,2.94749,0,5.45832,1.47375,5.724,4.59227Z"/>
    <path class="cls-1" d="M164.65887,14.13545H167.459v9.97234l5.05986-5.13263h3.43874l-4.86335,4.665,5.32913,8.03281h-3.42055L169.122,25.50694l-1.67024,1.62112v4.54859h-2.79284Z"/>
    <path class="cls-1" d="M177.17842,25.31044c0-3.88086,2.33252-6.67915,6.40988-6.67915S190,21.42958,190,25.31044s-2.33433,6.70645-6.4117,6.70645S177.17842,29.21677,177.17842,25.31044Zm10.02146,0c0-2.18332-1.10621-4.46854-3.61158-4.46854s-3.60977,2.2834-3.60977,4.46854,1.1044,4.49583,3.60977,4.49583S187.19988,27.52106,187.19988,25.31044Z"/>
  </g>
  <g id="Coin_Gecko_AI" data-name="Coin Gecko AI">
    <path class="cls-2" d="M50.21624,24.9975A25.10824,25.10824,0,1,1,24.9975.00025h.00133A25.10825,25.10825,0,0,1,50.21624,24.9975Z"/>
    <path class="cls-3" d="M48.33312,25.00659A23.22148,23.22148,0,1,1,25.00658,1.89065h.00135A23.2233,23.2233,0,0,1,48.33312,25.00659Z"/>
    <path class="cls-4" d="M25.53557,3.39531a12.76894,12.76894,0,0,1,4.46308,0,13.584,13.584,0,0,1,4.26294,1.42826,24.76917,24.76917,0,0,1,3.608,2.64183c1.139.92609,2.27247,1.874,3.3514,2.9111a16.98981,16.98981,0,0,1,2.85833,3.45693,19.66257,19.66257,0,0,1,2.00139,4.03369,18.3583,18.3583,0,0,1,.82238,8.84611h-.14373A40.75181,40.75181,0,0,0,44.576,18.41477a32.38486,32.38486,0,0,0-1.71755-3.8663,37.98868,37.98868,0,0,0-2.25974-3.62614,13.15472,13.15472,0,0,0-3.02754-3.05666,17.63856,17.63856,0,0,0-3.8463-1.90131c-1.31181-.51672-2.61271-1.05163-3.98092-1.44463s-2.75827-.68775-4.21018-.9734Z"/>
    <path class="cls-5" d="M36.887,16.81c-1.6848-.48761-3.43146-1.179-5.19995-1.87766a3.561,3.561,0,0,0-1.29-1.67207c-1.15535-1.00251-3.32593-.977-5.20177-.53309a12.98556,12.98556,0,0,0-6.07875-.18194c-16.05653,4.423-6.95207,15.21413-12.847,26.06162.83877,1.77941,9.87955,12.16112,22.96131,9.37556,0,0-4.474-10.75106,5.62206-15.911C43.0422,27.87039,48.959,20.09775,36.887,16.81Z"/>
    <path class="cls-4" d="M38.87023,23.87126a.9734.9734,0,1,1-.97886-.96794A.9734.9734,0,0,1,38.87023,23.87126Z"/>
    <path class="cls-6" d="M25.19533,12.71993a24.01377,24.01377,0,0,1,6.49176,2.20516c-.90972-2.63818-3.97184-2.98934-6.49175-2.20516Z"/>
    <path class="cls-4" d="M26.30883,19.39181a4.49037,4.49037,0,1,1-4.49219-4.48855h.00182A4.48854,4.48854,0,0,1,26.30883,19.39Z"/>
    <path class="cls-7" d="M24.977,19.43184a3.15855,3.15855,0,1,1-3.15854-3.15855h0A3.15855,3.15855,0,0,1,24.977,19.43184Z"/>
    <path class="cls-5" d="M42.50728,25.85081A22.45709,22.45709,0,0,1,28.8615,30.35938c-2.74735,0-3.3041-2.9111-5.1199-1.4883a12.92538,12.92538,0,0,1-6.86292,2.2652c-2.62181-.12554-6.872-1.663-8.05647-7.25956-.46941,5.59659-.70958,9.71944-2.811,14.44452,4.18471,6.701,14.16251,11.87,23.21967,9.643-.9734-6.7956,4.96524-13.4511,8.31119-16.85708a44.03623,44.03623,0,0,0,4.96524-5.26Z"/>
    <path class="cls-7" d="M42.36537,26.0182a16.28175,16.28175,0,0,1-3.84265,2.46534,24.42467,24.42467,0,0,1-4.31207,1.57018,13.54366,13.54366,0,0,1-4.60136.53127,6.2986,6.2986,0,0,1-4.21018-1.85037l.04913-.0564a8.022,8.022,0,0,0,4.20654,1.159,19.75345,19.75345,0,0,0,4.42123-.36389,24.07778,24.07778,0,0,0,4.29569-1.32819,15.98861,15.98861,0,0,0,3.94454-2.18332Z"/>
  </g>
</svg>
