<svg id="Yahoo_Logo" xmlns="http://www.w3.org/2000/svg" width="140" height="38.82539" viewBox="0 0 140 38.82539">
  <defs>
    <style>
      .cls-1 {
        fill: #5f01d1;
      }
    </style>
  </defs>
  <g id="Yahoo_Logo-2" data-name="Yahoo_Logo">
    <path id="path1139" class="cls-1" d="M0,9.45153H8.32908l4.84992,12.408,4.91287-12.408H26.2016L13.99015,38.82539H5.829l3.34269-7.78361Z"/>
    <path id="path1141" class="cls-1" d="M34.64981,8.95757c-6.258,0-10.21419,5.61248-10.21419,11.20161,0,6.28942,4.33744,11.2758,10.09547,11.2758,4.29527,0,5.9148-2.617,5.9148-2.617v2.03857h7.26456V9.45166H40.44589v1.9459A7.30109,7.30109,0,0,0,34.64981,8.95757Zm1.5452,6.87871a4.37249,4.37249,0,1,1,0,8.745A4.39474,4.39474,0,0,1,31.807,20.27718,4.23923,4.23923,0,0,1,36.195,15.83628Z"/>
    <path id="path1145" class="cls-1" d="M50.21232,30.85646V0H57.8106V11.47167a7.03529,7.03529,0,0,1,5.58465-2.51145c4.62355,0,7.33245,3.44493,7.33245,8.36758V30.85646H63.185V19.181c0-1.66593-.79354-3.27529-2.591-3.27529-1.82976,0-2.78336,1.63375-2.78336,3.27529V30.85646Z"/>
    <path id="path1147" class="cls-1" d="M83.6825,8.96011a11.073,11.073,0,0,0-11.434,11.28812c0,6.64444,5.16682,11.18675,11.46113,11.18675,6.10073,0,11.43906-4.33617,11.43906-11.07528C95.1487,12.9859,89.5593,8.96011,83.6825,8.96011Zm.06843,6.93916A4.31244,4.31244,0,0,1,88.034,20.25618a4.38015,4.38015,0,0,1-4.28308,4.2831A4.2405,4.2405,0,0,1,79.499,20.2352,4.13122,4.13122,0,0,1,83.75093,15.89927Z"/>
    <path id="path1153" class="cls-1" d="M107.80707,8.96011a11.073,11.073,0,0,0-11.434,11.28812c0,6.64444,5.16683,11.18675,11.46113,11.18675,6.10073,0,11.43906-4.33617,11.43906-11.07528C119.27327,12.9859,113.68388,8.96011,107.80707,8.96011Zm.06843,6.93916a4.31245,4.31245,0,0,1,4.28309,4.35691,4.38016,4.38016,0,0,1-4.28309,4.2831,4.2405,4.2405,0,0,1-4.252-4.30408A4.13122,4.13122,0,0,1,107.8755,15.89927Z"/>
    <circle id="path1155" class="cls-1" cx="125.26887" cy="26.26535" r="5.04555"/>
    <path id="path1157" class="cls-1" d="M131.97234,19.36637H122.889L130.95062,0H140Z"/>
  </g>
</svg>
