<svg id="BBC_Logo" xmlns="http://www.w3.org/2000/svg" width="110" height="31.35143" viewBox="0 0 110 31.35143">
  <path d="M59.59987,20.26211c0,3.40681-4.23951,3.20463-4.23951,3.20463H51.121V17.31081h4.2394c4.36293-.02926,4.23951,2.9513,4.23951,2.9513M51.121,7.92253h3.23048c3.35456.17721,3.228,2.67476,3.228,2.67476,0,3.10376-3.70931,3.15436-3.70931,3.15436H51.121Zm7.69472,7.03967a5.0035,5.0035,0,0,0,2.876-4.51627s.44132-5.375-6.68019-6.03064H47.10926V26.94868H56.1671s7.56822.02255,7.56822-6.35789c-.00011,0,.17886-4.342-4.91964-5.62859M38.365,0H71.63486V31.35143H38.365ZM21.23451,20.26211c0,3.40681-4.23951,3.20463-4.23951,3.20463H12.75527V17.31081H16.995c4.36326-.02926,4.23951,2.9513,4.23951,2.9513M12.75527,7.92253h3.23114c3.35467.17721,3.22773,2.67476,3.22773,2.67476,0,3.10376-3.70909,3.15436-3.70909,3.15436H12.75527V7.92253Zm7.69538,7.03967a5.00317,5.00317,0,0,0,2.87617-4.51627s.441-5.375-6.68052-6.03064H8.74379V26.94868h9.05839s7.56811.02255,7.56811-6.35789c0,0,.17831-4.342-4.91964-5.62859M0,0H33.26983V31.35143H0ZM103.21311,6.03075v4.16306a18.9936,18.9936,0,0,0-8.554-2.54749s-8.37772-.16445-8.75534,8.03055c0,0-.30261,7.53643,8.65436,7.96587,0,0,3.75815.45265,8.85654-2.79851v4.31145a17.96418,17.96418,0,0,1-14.76168.93368,11.409,11.409,0,0,1-6.91361-10.41249,11.47883,11.47883,0,0,1,8.6053-10.93279,15.95094,15.95094,0,0,1,6.63443-.50446,24.11972,24.11972,0,0,1,6.234,1.79113M76.73017,31.35143H110V0H76.73017Z"/>
</svg>
