<svg id="Pancakeswap_Logo" xmlns="http://www.w3.org/2000/svg" width="210" height="35.89871" viewBox="0 0 210 35.89871">
  <defs>
    <style>
      .cls-1, .cls-4 {
        fill: #633001;
      }

      .cls-1, .cls-3 {
        fill-rule: evenodd;
      }

      .cls-2 {
        fill: #fedc90;
      }

      .cls-3 {
        fill: #d1884f;
      }
    </style>
  </defs>
  <g id="Logo">
    <path class="cls-1" d="M6.39446,5.60917a4.7,4.7,0,1,1,9.31123-.89746v5.83354c.6731,0,1.3462-.11219,2.0193-.11219a10.88346,10.88346,0,0,1,1.90712.11219V4.71171A4.74015,4.74015,0,0,1,24.34382,0a4.85178,4.85178,0,0,1,4.71171,5.60917l-1.234,6.8432c4.37515,1.90712,7.74066,5.27262,7.74066,9.42341V24.456c0,3.47769-2.24367,6.39446-5.497,8.30158A23.41411,23.41411,0,0,1,17.725,35.89871,23.41408,23.41408,0,0,1,5.38481,32.75758C2.24367,30.85046,0,27.93369,0,24.456V21.87578c0-4.15079,3.25332-7.51629,7.62848-9.42341Zm19.74429,7.74066,1.45839-8.07721A3.31583,3.31583,0,0,0,24.34382,1.3462a3.25567,3.25567,0,0,0-3.25333,3.25332v7.40411a6.39684,6.39684,0,0,0-1.45838-.11218c-.6731,0-1.234-.11218-1.90712-.11218a12.19323,12.19323,0,0,0-2.0193.11218c-.44874,0-1.00965.11218-1.45839.11218V4.71171a3.23468,3.23468,0,1,0-6.39446.6731L9.31123,13.462C4.59952,15.257,1.45839,18.39809,1.45839,21.988v2.58022c0,5.497,7.29192,9.98433,16.2666,9.98433S33.9916,30.06517,33.9916,24.56818V21.988C34.10378,18.28591,30.96264,15.14477,26.13875,13.34983Z"/>
    <path class="cls-2" d="M34.10378,24.456c0,5.497-7.29193,9.98433-16.26661,9.98433S1.57057,29.953,1.57057,24.456V21.87578H34.216V24.456Z"/>
    <path class="cls-3" d="M7.85284,5.38481a3.23468,3.23468,0,1,1,6.39446-.6731v7.40411a33.97249,33.97249,0,0,1,3.47769-.22437c1.12184,0,2.24367.11218,3.36551.22437V4.71171a3.25565,3.25565,0,0,1,3.25332-3.25332,3.37521,3.37521,0,0,1,3.25332,3.92642L26.13875,13.462c4.71171,1.79493,7.965,4.93607,7.965,8.52594,0,5.497-7.29192,9.98433-16.2666,9.98433S1.57057,27.485,1.57057,21.988c0-3.58987,3.14114-6.731,7.85284-8.52594Z"/>
    <path class="cls-4" d="M13.23765,21.20268c0,1.45838-.78528,2.6924-1.79493,2.6924s-1.79494-1.234-1.79494-2.6924.78528-2.6924,1.79494-2.6924S13.23765,19.74429,13.23765,21.20268Z"/>
    <path class="cls-4" d="M25.69,21.20268c0,1.45838-.78529,2.6924-1.79494,2.6924s-1.79493-1.234-1.79493-2.6924.78528-2.6924,1.79493-2.6924S25.69,19.74429,25.69,21.20268Z"/>
  </g>
  <g id="Text">
    <path d="M42.29318,26.39451V8.95476h8.58489a6.509,6.509,0,0,1,3.439.82642,5.13739,5.13739,0,0,1,2.01757,2.23355,7.35376,7.35376,0,0,1,.66335,3.16906,6.47321,6.47321,0,0,1-.75811,3.168,5.37075,5.37075,0,0,1-2.15311,2.15311,6.74749,6.74749,0,0,1-3.31671.77133h-4.1167v5.11832Zm4.36021-8.4758H49.7949a2.666,2.666,0,0,0,2.07157-.75811,2.861,2.861,0,0,0,.6909-2.00435,3.1375,3.1375,0,0,0-.6369-2.09912,2.47959,2.47959,0,0,0-1.99-.74488h-3.277Z"/>
    <path d="M62.17143,26.66558a5.85018,5.85018,0,0,1-2.26109-.433,3.69321,3.69321,0,0,1-1.66607-1.341,3.90185,3.90185,0,0,1-.62258-2.26109,3.82813,3.82813,0,0,1,1.33991-3.10075,6.14244,6.14244,0,0,1,4.02193-1.12393h3.57456v-.29752a1.53444,1.53444,0,0,0-.65012-1.395,4.894,4.894,0,0,0-2.4374-.41982,14.00972,14.00972,0,0,0-4.30512.67766V14.15462a11.90964,11.90964,0,0,1,2.31509-.62367,16.46926,16.46926,0,0,1,2.88367-.24352,7.87256,7.87256,0,0,1,4.672,1.2187,4.4491,4.4491,0,0,1,1.69252,3.87317v8.01521H66.9096l-.216-1.08316A4.74332,4.74332,0,0,1,64.89312,26.313,9.01794,9.01794,0,0,1,62.17143,26.66558Zm1.38068-2.68092a4.21178,4.21178,0,0,0,1.78728-.35261,3.48983,3.48983,0,0,0,1.2187-.89364V20.92469H63.47057q-1.92227,0-1.92281,1.54266a1.36825,1.36825,0,0,0,.48814,1.11071A2.339,2.339,0,0,0,63.55211,23.98466Z"/>
    <path d="M73.35351,26.39451v-12.836h4.0627l.13553,1.11072a8.38759,8.38759,0,0,1,1.97681-.962,7.59614,7.59614,0,0,1,2.54538-.41982,4.82408,4.82408,0,0,1,3.62856,1.19225,5.172,5.172,0,0,1,1.13716,3.68255v8.23228H82.47943V18.51373a2.13193,2.13193,0,0,0-.45949-1.54266,2.31646,2.31646,0,0,0-1.65175-.46059,3.50728,3.50728,0,0,0-1.43577.32506,3.9867,3.9867,0,0,0-1.2187.8121v8.74687Z"/>
    <path d="M96.07356,26.66558a7.93571,7.93571,0,0,1-5.37506-1.67929,6.27093,6.27093,0,0,1-1.936-5.01034A6.13037,6.13037,0,0,1,90.78,14.93917a8.22341,8.22341,0,0,1,5.37506-1.65174,12.94732,12.94732,0,0,1,2.45062.20385,8.45863,8.45863,0,0,1,2.01758.66334V17.241a8.09132,8.09132,0,0,0-3.547-.73056,4.67552,4.67552,0,0,0-2.88477.75811,3.22366,3.22366,0,0,0-.98841,2.70736,3.386,3.386,0,0,0,.92119,2.64125,4.3003,4.3003,0,0,0,2.92444.82533,7.949,7.949,0,0,0,3.60211-.8121v3.22195a8.692,8.692,0,0,1-2.09912.62367A15.0347,15.0347,0,0,1,96.07356,26.66558Z"/>
    <path d="M106.87988,26.66558a5.85018,5.85018,0,0,1-2.26109-.433,3.69321,3.69321,0,0,1-1.66607-1.341,3.90185,3.90185,0,0,1-.62258-2.26109,3.82813,3.82813,0,0,1,1.33991-3.10075,6.14244,6.14244,0,0,1,4.02193-1.12393h3.57456v-.29752a1.53444,1.53444,0,0,0-.65012-1.395,4.894,4.894,0,0,0-2.4374-.41982,14.00972,14.00972,0,0,0-4.30512.67766V14.15462A11.90964,11.90964,0,0,1,106.189,13.531a16.46926,16.46926,0,0,1,2.88367-.24352,7.87254,7.87254,0,0,1,4.672,1.2187,4.4491,4.4491,0,0,1,1.69252,3.87317v8.01521h-3.81918l-.216-1.08316a4.74332,4.74332,0,0,1-1.80051,1.00162A9.01794,9.01794,0,0,1,106.87988,26.66558Zm1.38068-2.68092a4.21178,4.21178,0,0,0,1.78728-.35261,3.48983,3.48983,0,0,0,1.2187-.89364V20.92469H108.179q-1.92226,0-1.92281,1.54266a1.36825,1.36825,0,0,0,.48814,1.11071A2.339,2.339,0,0,0,108.26056,23.98466Z"/>
    <path d="M118.06306,26.39451V8.14266h4.36021v9.53253l4.19713-4.1167h4.95635l-5.14587,5.3343,5.44338,7.50172h-4.63018L123.696,21.19465l-1.27269,1.24625v3.95361Z"/>
    <path d="M138.91539,26.66558a8.23282,8.23282,0,0,1-5.38938-1.66607,6.11511,6.11511,0,0,1-2.0308-5.02356,6.89221,6.89221,0,0,1,1.67929-4.8737,6.53134,6.53134,0,0,1,5.03678-1.81482,6.67838,6.67838,0,0,1,4.73927,1.5713,5.5084,5.5084,0,0,1,1.67819,4.22358v2.30187h-9.09838a2.43883,2.43883,0,0,0,1.3939,1.77406,7.31932,7.31932,0,0,0,2.99276.50136,12.59824,12.59824,0,0,0,2.15311-.18953,8.94451,8.94451,0,0,0,1.828-.48814v2.844a8.16866,8.16866,0,0,1-2.19388.6358A17.73238,17.73238,0,0,1,138.91539,26.66558Zm-3.385-7.79924h5.30785v-.56858a1.99986,1.99986,0,0,0-.56968-1.503,2.70053,2.70053,0,0,0-1.92172-.55536,3.01824,3.01824,0,0,0-2.19388.6369A2.75311,2.75311,0,0,0,135.53036,18.86634Z"/>
    <path d="M152.40043,26.66558a19.14627,19.14627,0,0,1-3.23517-.25784,10.68274,10.68274,0,0,1-2.58616-.74489v-3.709a14.78927,14.78927,0,0,0,2.64015.83855,12.5421,12.5421,0,0,0,2.74814.32506,7.39473,7.39473,0,0,0,2.42418-.29752,1.23737,1.23737,0,0,0,.79887-1.30024,1.49224,1.49224,0,0,0-.39338-1.08316,3.3109,3.3109,0,0,0-1.27269-.71734q-.87931-.31074-2.39663-.74488a11.91562,11.91562,0,0,1-2.8429-1.20438,3.96162,3.96162,0,0,1-1.51621-1.61208,5.29225,5.29225,0,0,1-.4606-2.32831,4.46636,4.46636,0,0,1,1.78728-3.81808,8.79222,8.79222,0,0,1,5.2803-1.32779,18.65266,18.65266,0,0,1,2.952.2303,15.3537,15.3537,0,0,1,2.32942.52781v3.73764a12.71271,12.71271,0,0,0-4.63129-.89364,8.48708,8.48708,0,0,0-2.36908.27107,1.17665,1.17665,0,0,0-.908,1.24514,1.25576,1.25576,0,0,0,.32506.90687,2.81419,2.81419,0,0,0,1.12393.60935q.79833.27107,2.18066.65012a10.47007,10.47007,0,0,1,3.27595,1.36745,4.31334,4.31334,0,0,1,1.57131,1.84128,6.07885,6.07885,0,0,1,.433,2.34263,4.534,4.534,0,0,1-1.78728,3.72442Q156.083,26.66559,152.40043,26.66558Z"/>
    <path d="M164.0453,26.39451l-3.385-12.836h4.27867l1.73329,7.3662,1.81373-5.60646V13.55849h3.277l2.11234,7.3662,1.6793-7.3662h4.27867l-3.385,12.836h-3.95362l-2.19388-6.66208-2.24787,6.66208Z"/>
    <path d="M184.84365,26.66558a5.85023,5.85023,0,0,1-2.2611-.433,3.69321,3.69321,0,0,1-1.66607-1.341,3.90185,3.90185,0,0,1-.62258-2.26109,3.82813,3.82813,0,0,1,1.33991-3.10075,6.14247,6.14247,0,0,1,4.02194-1.12393h3.57456v-.29752a1.53446,1.53446,0,0,0-.65012-1.395,4.8941,4.8941,0,0,0-2.43741-.41982,14.00961,14.00961,0,0,0-4.30511.67766V14.15462a11.90924,11.90924,0,0,1,2.31509-.62367,16.46915,16.46915,0,0,1,2.88366-.24352,7.87259,7.87259,0,0,1,4.67206,1.2187A4.44912,4.44912,0,0,1,193.401,18.3793v8.01521h-3.81918l-.216-1.08316a4.74328,4.74328,0,0,1-1.8005,1.00162A9.018,9.018,0,0,1,184.84365,26.66558Zm1.38068-2.68092a4.21181,4.21181,0,0,0,1.78728-.35261,3.48993,3.48993,0,0,0,1.2187-.89364V20.92469h-3.08753q-1.92225,0-1.92281,1.54266a1.36825,1.36825,0,0,0,.48814,1.11071A2.339,2.339,0,0,0,186.22433,23.98466Z"/>
    <path d="M196.02572,32.24339V13.55849h3.79163l.21708,1.11072a6.067,6.067,0,0,1,1.75973-1.016,6.46937,6.46937,0,0,1,2.27432-.36583,6.13875,6.13875,0,0,1,4.33377,1.47654Q209.9989,16.24,210,19.706a7.37636,7.37636,0,0,1-1.63852,5.19876,5.85669,5.85669,0,0,1-4.509,1.76083,6.75138,6.75138,0,0,1-3.46658-.83965v6.41746Zm6.71607-8.77332q2.81646,0,2.81646-3.84562a3.55421,3.55421,0,0,0-.65013-2.4914,2.85752,2.85752,0,0,0-2.08479-.65012,3.48534,3.48534,0,0,0-2.4374.97518V22.658a4.90671,4.90671,0,0,0,1.0424.595A3.4573,3.4573,0,0,0,202.74179,23.47007Z"/>
  </g>
</svg>
