<svg id="Coinmarketcap_Logo" xmlns="http://www.w3.org/2000/svg" width="210" height="36.11399" viewBox="0 0 210 36.11399">
  <defs>
    <style>
      .cls-1 {
        fill: #17181b;
      }
    </style>
  </defs>
  <path class="cls-1" d="M30.93484,21.59141a1.91787,1.91787,0,0,1-1.92468.14,2.95632,2.95632,0,0,1-1.11981-2.65956V15.11749c0-1.88969-.73487-3.25446-1.99466-3.6044-2.13465-.62989-3.74438,1.99467-4.33928,2.9745l-3.77937,6.054V13.08783c-.035-1.71471-.5949-2.72954-1.64473-3.0445-.69988-.21-1.74971-.105-2.76454,1.43476L4.93418,24.98584A14.92949,14.92949,0,0,1,3.21946,18.057,14.682,14.682,0,0,1,17.777,3.28946,14.682,14.682,0,0,1,32.33461,18.057v.07a3.72653,3.72653,0,0,1-1.39977,3.46441ZM35.55408,18.057h0v-.07A17.96056,17.96056,0,0,0,17.777,0,17.9308,17.9308,0,0,0,0,18.057,17.95325,17.95325,0,0,0,17.777,36.114,17.46831,17.46831,0,0,0,29.85,31.2848a1.635,1.635,0,0,0-2.20464-2.4146l-.035.035a14.38066,14.38066,0,0,1-20.71655-.94485l7.59374-12.178v5.63407c0,2.69455,1.04982,3.56941,1.92468,3.81436s2.20463.07,3.63939-2.20463L24.216,16.27231a3.8729,3.8729,0,0,1,.38493-.55991v3.42943a6.04946,6.04946,0,0,0,2.76454,5.52907,5.08513,5.08513,0,0,0,5.21413-.21A6.93419,6.93419,0,0,0,35.55408,18.057ZM60.33,11.898a1.75481,1.75481,0,0,1,.80487,1.36477,1.54673,1.54673,0,0,1-1.50476,1.53974,2.65278,2.65278,0,0,1-.5599-.105,5.75085,5.75085,0,0,0-3.39444-1.1548c-2.9745,0-5.00416,2.41459-5.00416,5.42409a5.077,5.077,0,0,0,5.00416,5.3891,5.43512,5.43512,0,0,0,3.77937-1.53974,1.53128,1.53128,0,0,1,.87486-.27995A1.41909,1.41909,0,0,1,61.76471,23.971a1.48978,1.48978,0,0,1-.69988,1.22479,8.30669,8.30669,0,1,1-5.35411-14.69755A7.90916,7.90916,0,0,1,60.33,11.898Zm8.32861,3.49941a5.81185,5.81185,0,0,1,5.70405,5.879,5.95217,5.95217,0,0,1-5.70405,5.984,6.01953,6.01953,0,0,1-5.949-5.984A5.92937,5.92937,0,0,1,68.65856,15.39743Zm-.035,8.95851a2.79461,2.79461,0,0,0,2.51957-3.04449,2.62831,2.62831,0,0,0-2.51957-2.86953A2.67749,2.67749,0,0,0,65.929,21.31145,2.87674,2.87674,0,0,0,68.62357,24.35594Zm7.69871,1.08482V17.18214A1.61337,1.61337,0,0,1,77.932,15.53741a1.63574,1.63574,0,0,1,1.60973,1.64473v8.25862A1.63574,1.63574,0,0,1,77.932,27.08549,1.659,1.659,0,0,1,76.32228,25.44076Zm-.245-13.01783a1.8829,1.8829,0,0,1,1.8547-1.92468,1.91183,1.91183,0,0,1,1.88968,1.92468,1.87227,1.87227,0,1,1-3.74438,0Zm9.6234,8.53857v4.47925a1.61011,1.61011,0,1,1-3.21947,0V16.79719a1.24242,1.24242,0,1,1,2.48459,0,4.66988,4.66988,0,0,1,3.53441-1.39977c3.21947,0,4.65422,2.4146,4.65422,5.17914v4.86418a1.6101,1.6101,0,1,1-3.21946,0V20.96149c0-1.39976-.175-2.58956-2.20463-2.58956-1.43477,0-2.02966,1.18981-2.02966,2.58957Zm17.882,1.71473a1.0429,1.0429,0,0,1-.83986-.41994L98.9985,18.197v7.24379a1.6101,1.6101,0,1,1-3.21946,0V11.09316a.68157.68157,0,0,1,.5949-.41994,1.12649,1.12649,0,0,1,.69988.41994l5.984,6.71888a.7809.7809,0,0,0,.52491.31495.85975.85975,0,0,0,.52491-.31495l5.984-6.71888a1.041,1.041,0,0,1,.69988-.41994.61007.61007,0,0,1,.59491.41994v14.3476a1.61336,1.61336,0,0,1-1.60974,1.64473,1.63574,1.63574,0,0,1-1.60973-1.64473V18.197l-3.74438,4.05932a1.29142,1.29142,0,0,1-.83986.41994Zm15.46742,1.67971a2.85111,2.85111,0,0,0,2.65956-3.04449,2.74317,2.74317,0,0,0-2.65956-2.90452,2.68563,2.68563,0,0,0-2.55457,2.90452A2.81685,2.81685,0,0,0,119.05016,24.35594Zm3.42943,1.46976-.07-.38494c-.62989,1.2248-2.62456,1.78471-3.88435,1.78471-3.0095,0-5.24913-2.72954-5.24913-5.984a5.58356,5.58356,0,0,1,5.4241-5.879,5.03469,5.03469,0,0,1,3.74438,1.7847l.07-.38493a1.22533,1.22533,0,0,1,1.2248-1.2598,1.27725,1.27725,0,0,1,1.25979,1.2598v9.02849a1.25456,1.25456,0,0,1-1.25979,1.25979,1.20474,1.20474,0,0,1-1.2598-1.2248Zm11.37311-7.45376h-.34994c-2.02966.105-2.4146,1.25979-2.4146,2.58956v4.47925a1.61011,1.61011,0,1,1-3.21947,0V16.79719a1.24242,1.24242,0,1,1,2.48459,0,4.46352,4.46352,0,0,1,3.14948-1.39977h.31494a1.50927,1.50927,0,0,1,1.46976,1.50475,1.47146,1.47146,0,0,1-1.43476,1.46977Zm12.42293,6.299a1.53786,1.53786,0,0,1,.245.76987,1.67714,1.67714,0,0,1-1.60973,1.60974,1.98681,1.98681,0,0,1-1.43477-.90985l-3.70938-4.30428v3.56941a1.61011,1.61011,0,1,1-3.21947,0V12.283a1.61011,1.61011,0,1,1,3.21947,0V20.4716l3.70938-4.09432a2.10557,2.10557,0,0,1,1.39977-.87486,1.60851,1.60851,0,0,1,1.53974,1.57474,1.37732,1.37732,0,0,1-.21.73488l-2.93951,3.21947,3.0095,3.63938Zm6.29895-6.264c-.87486,0-2.30962.45492-2.30962,1.81971h4.65422c-.035-1.36479-1.50474-1.81971-2.3446-1.81971Zm4.1993,3.88436H150.265c0,1.92468,1.85469,2.23962,2.65956,2.23962a5.22331,5.22331,0,0,0,2.09965-.41993,1.58439,1.58439,0,0,1,.83986-.245,1.32224,1.32224,0,0,1,1.29479,1.32977,1.41791,1.41791,0,0,1-.69989,1.1548,5.78285,5.78285,0,0,1-3.49941.90985c-3.25446,0-5.949-1.7497-5.949-5.844,0-3.21946,1.64473-6.019,5.49409-6.019,3.11448,0,5.45909,2.02966,5.52907,5.63407a1.27726,1.27726,0,0,1-1.25979,1.25981Zm8.9585,4.93418h-.87486c-2.44959,0-3.88435-1.08482-3.88435-4.89918V18.37195h-.83986a1.48821,1.48821,0,0,1,0-2.97451h.83986V12.353a1.61336,1.61336,0,0,1,1.60973-1.64473,1.63574,1.63574,0,0,1,1.60974,1.64473v3.04449h1.32977a1.48,1.48,0,0,1,1.43476,1.50475,1.52134,1.52134,0,0,1-1.43476,1.46976h-1.32977V21.6964c0,2.20462.105,2.65955,1.08482,2.65955h.45492a1.44117,1.44117,0,0,1,1.43476,1.43477,1.46462,1.46462,0,0,1-1.43476,1.43475ZM181.30478,11.898a1.75477,1.75477,0,0,1,.80486,1.36477,1.54672,1.54672,0,0,1-1.50474,1.53974,2.65278,2.65278,0,0,1-.5599-.105,5.75083,5.75083,0,0,0-3.39444-1.1548c-2.9745,0-5.00416,2.41459-5.00416,5.42409a5.077,5.077,0,0,0,5.00416,5.3891,5.43512,5.43512,0,0,0,3.77937-1.53974,1.53124,1.53124,0,0,1,.87485-.27995,1.41909,1.41909,0,0,1,1.43475,1.43477,1.4898,1.4898,0,0,1-.69988,1.22479,8.30669,8.30669,0,1,1-5.3541-14.69755,7.833,7.833,0,0,1,4.61923,1.39976Zm8.15364,12.45792a2.85111,2.85111,0,0,0,2.65955-3.04449,2.74316,2.74316,0,0,0-2.65955-2.90452,2.66452,2.66452,0,0,0-2.55457,2.90452,2.8407,2.8407,0,0,0,2.55457,3.04449Zm3.42944,1.46976-.07-.38494c-.62989,1.2248-2.62456,1.78471-3.88434,1.78471-3.00949,0-5.24913-2.72954-5.24913-5.984a5.58356,5.58356,0,0,1,5.4241-5.879,5.03469,5.03469,0,0,1,3.74438,1.7847l.07-.38493a1.22533,1.22533,0,0,1,1.2248-1.2598,1.27724,1.27724,0,0,1,1.25978,1.2598v9.02849a1.25455,1.25455,0,0,1-1.25978,1.25979A1.20474,1.20474,0,0,1,192.88786,25.8257ZM204.191,24.35594a2.81685,2.81685,0,0,0,2.55457-3.04449,2.665,2.665,0,0,0-2.55457-2.90452,2.72215,2.72215,0,0,0-2.65955,2.90452A2.85109,2.85109,0,0,0,204.191,24.35594Zm-2.65957,1.92468v4.09432a1.6101,1.6101,0,1,1-3.21945,0V16.79721a1.25455,1.25455,0,0,1,1.25978-1.25979,1.28682,1.28682,0,0,1,1.2248,1.39977,5.17546,5.17546,0,0,1,3.77936-1.53975A5.58456,5.58456,0,0,1,210,21.27646c0,3.21947-2.20463,5.984-5.24913,5.984a6.17251,6.17251,0,0,1-3.21946-.97985Z"/>
</svg>
