<svg id="Coinzilla_Logo_light_background" data-name="Coinzilla Logo light background" xmlns="http://www.w3.org/2000/svg" xmlns:xlink="http://www.w3.org/1999/xlink" width="143.99998" height="39.59553" viewBox="0 0 143.99998 39.59553">
  <defs>
    <style>
      .cls-1 {
        fill: none;
      }

      .cls-2 {
        fill: url(#Безымянный_градиент);
      }

      .cls-3 {
        fill: url(#Безымянный_градиент_2);
      }

      .cls-4 {
        fill: url(#Безымянный_градиент_3);
      }

      .cls-5 {
        fill: #d5753e;
      }

      .cls-6 {
        fill: url(#Безымянный_градиент_4);
      }

      .cls-7 {
        fill: url(#Безымянный_градиент_5);
      }

      .cls-8 {
        fill: #ebebb9;
      }

      .cls-9 {
        fill: #d49445;
      }

      .cls-10 {
        fill: #d57328;
      }

      .cls-11 {
        fill: #9d512a;
      }

      .cls-12 {
        fill: #542815;
      }

      .cls-13 {
        fill: #fff;
      }

      .cls-14 {
        clip-path: url(#clip-path);
      }

      .cls-15 {
        fill: url(#Безымянный_градиент_6);
      }

      .cls-16 {
        fill: #f1f1f2;
      }
    </style>
    <linearGradient id="Безымянный_градиент" data-name="Безымянный градиент" x1="-4748.13233" y1="3922.15149" x2="-4747.72187" y2="3924.98827" gradientTransform="matrix(-1, 0, 0, 1, -4738.82007, -3904.40446)" gradientUnits="userSpaceOnUse">
      <stop offset="0" stop-color="#e9852f"/>
      <stop offset="1" stop-color="#d57328"/>
    </linearGradient>
    <linearGradient id="Безымянный_градиент_2" data-name="Безымянный градиент 2" x1="-4748.34893" y1="3929.92694" x2="-4747.73687" y2="3932.56212" xlink:href="#Безымянный_градиент"/>
    <linearGradient id="Безымянный_градиент_3" data-name="Безымянный градиент 3" x1="-4748.89098" y1="3912.52594" x2="-4747.46538" y2="3916.68753" xlink:href="#Безымянный_градиент"/>
    <linearGradient id="Безымянный_градиент_4" data-name="Безымянный градиент 4" x1="-5389.62192" y1="3270.19645" x2="-5382.37042" y2="3270.19645" gradientTransform="translate(-2441.07745 -5771.03159) rotate(-81.78028)" gradientUnits="userSpaceOnUse">
      <stop offset="0" stop-color="#d49445"/>
      <stop offset="1" stop-color="#ca6928"/>
    </linearGradient>
    <linearGradient id="Безымянный_градиент_5" data-name="Безымянный градиент 5" x1="-4761.2487" y1="3915.50988" x2="-4756.51109" y2="3931.7386" gradientTransform="matrix(-1, 0, 0, 1, -4738.82007, -3904.40446)" gradientUnits="userSpaceOnUse">
      <stop offset="0" stop-color="#efcd5a"/>
      <stop offset="1" stop-color="#f6921e"/>
    </linearGradient>
    <clipPath id="clip-path" transform="translate(0 0)">
      <polygon class="cls-1" points="27.137 11.552 37.044 11.552 37.433 3.466 27.137 5.59 27.137 11.552"/>
    </clipPath>
    <linearGradient id="Безымянный_градиент_6" data-name="Безымянный градиент 6" x1="-6147.28694" y1="-2038.79532" x2="-6140.03268" y2="-2038.79532" gradientTransform="matrix(-0.14002, -0.99015, -0.99015, 0.14002, -2869.18983, -5772.46911)" xlink:href="#Безымянный_градиент_4"/>
  </defs>
  <path class="cls-2" d="M7.79077,21.11324a.81359.81359,0,0,1,.3312-.72c-.72-.0864-1.3176-.3888-1.2888-1.12319s.5832-1.0296,1.2888-1.1448a.87117.87117,0,0,1-.396-.76319c.0648-1.54079,3.348-.2088,3.348-.2088v4.08237S7.92037,22.654,7.79077,21.11324Z" transform="translate(0 0)"/>
  <path class="cls-3" d="M8.16517,28.6156a.56158.56158,0,0,1,.2232-.504c-.468-.036-.8928-.26639-.8784-.756s.4032-.72.8784-.792a.576.576,0,0,1-.2664-.51839c.0432-1.0512,2.28238-.1368,2.28238-.1368V28.6876S8.23717,29.6668,8.16517,28.6156Z" transform="translate(0 0)"/>
  <path class="cls-4" d="M7.20037,11.1413a1.03682,1.03682,0,0,1,.72-.6624c-.7776-.468-1.2672-1.08719-.864-1.88638s1.1808-.8568,2.02319-.6336a1.03682,1.03682,0,0,1-.0504-1.044c.8496-1.692,3.83038,1.44,3.83038,1.44l-.6192,1.34639-.072.1656-.72,1.56239-.0864.1944-.5184,1.332S6.48038,12.90529,7.20037,11.1413Z" transform="translate(0 0)"/>
  <path class="cls-5" d="M13.02514,37.234s-5.60157,2.34719-8.63995,0l.92159-1.56239h6.57357c.072,0,1.62719.3096,1.62719.3096Z" transform="translate(0 0)"/>
  <path class="cls-6" d="M23.60188,25.54842c.84959.468,2.92318,1.24559,2.06639,3.26158a3.7512,3.7512,0,0,1-1.1448,1.28879c-.72.4464-.0792.6624.3312.6192s5.32077-1.08,3.024-5.19837c-.4176-.72-2.304-2.412-4.00318-2.11679C22.03949,23.75563,23.16988,25.30362,23.60188,25.54842Z" transform="translate(0 0)"/>
  <path class="cls-7" d="M10.36115,26.63561V28.234s-.42479,5.52956-3.75837,5.52956c0,0-5.76.5976-6.60237-7.68955,0,0-.2664,16.7039,12.73673,10.73514l.5328,2.78638,3.33358-4.32,5.60157.5904,2.06639,3.11758.33119-16.2143s10.15915,1.44,12.00234,1.63439c0,0,3.6-21.14628-9.73435-22.07508C9.202.35576,10.534,14.74128,10.534,14.74128l-.1296,8.63995Z" transform="translate(0 0)"/>
  <path class="cls-8" d="M15.28593,18.90286c.0864-3.024.66959-4.02478,1.37519-4.02478s1.44,2.60639,1.37519,5.80317Z" transform="translate(0 0)"/>
  <path class="cls-9" d="M22.53628,14.30928c0,.6696,1.0944,1.2168,2.448,1.2168s2.448-.5472,2.448-1.2168-1.10159-1.21679-2.448-1.21679S22.53628,13.63249,22.53628,14.30928Z" transform="translate(0 0)"/>
  <path class="cls-9" d="M30.24024,14.05729c-.0792.33119.324.72.90719.84959s1.1088,0,1.188-.3528-.324-.72-.90719-.84959S30.28344,13.72609,30.24024,14.05729Z" transform="translate(0 0)"/>
  <path class="cls-9" d="M20.1603,15.24528c-.0576.2376.2376.51119.65519.612s.8064,0,.864-.25919-.2376-.5112-.6552-.612S20.2035,15.00048,20.1603,15.24528Z" transform="translate(0 0)"/>
  <path class="cls-9" d="M25.00587,16.46927c-.0504.2376.2376.5112.648.6048s.792,0,.84959-.252-.2304-.504-.64079-.6048S25.06347,16.23167,25.00587,16.46927Z" transform="translate(0 0)"/>
  <path class="cls-10" d="M18.36751,25.54122s-.5616,1.80719-1.44,2.304c.61919.792,1.70639,1.60559,2.88-.1584a5.23447,5.23447,0,0,1-1.26719-2.05919s1.872,3.996,3.86637-.0864c0,0-1.01519,3.26878-2.49838,2.22479-.5472,1.16639-1.692,2.78638-3.096.13679-.6336.2664-1.44-.15119-2.28959-2.27518C14.50113,25.62762,16.37312,29.6236,18.36751,25.54122Z" transform="translate(0 0)"/>
  <path class="cls-5" d="M25.92027,6.38213A3.83037,3.83037,0,0,0,20.5779,2.991a4.01756,4.01756,0,0,0-2.36879,3.42A3.6,3.6,0,0,0,19.9299,9.62211a4.09679,4.09679,0,0,0,5.5764-1.57192q.05892-.10517.11157-.21367A3.60017,3.60017,0,0,0,25.92027,6.38213Z" transform="translate(0 0)"/>
  <path class="cls-8" d="M25.69707,5.97893a3.6,3.6,0,0,0-5.04-3.21838,3.83759,3.83759,0,0,0-2.24638,3.24718A3.348,3.348,0,0,0,20.0451,9.04611a3.88077,3.88077,0,0,0,5.28142-1.49243h0q.05495-.09824.10414-.19955A3.38405,3.38405,0,0,0,25.69707,5.97893Z" transform="translate(0 0)"/>
  <path class="cls-11" d="M20.4987,6.70613a1.44,1.44,0,1,0,1.44-1.44,1.44,1.44,0,0,0-1.44,1.44Z" transform="translate(0 0)"/>
  <path class="cls-12" d="M21.00989,6.47573a.9144.9144,0,1,0,.9144-.9144.9144.9144,0,0,0-.9144.9144Z" transform="translate(0 0)"/>
  <path class="cls-13" d="M20.5923,5.45333a.66959.66959,0,1,0,.67675-.66235h-.00716A.6696.6696,0,0,0,20.5923,5.45333Z" transform="translate(0 0)"/>
  <path class="cls-9" d="M21.24749,11.0117a6.552,6.552,0,0,0,4.36318-1.656,5.436,5.436,0,0,1-8.72635,0A6.54468,6.54468,0,0,0,21.24749,11.0117Z" transform="translate(0 0)"/>
  <path class="cls-9" d="M21.80189,10.34211a5.35677,5.35677,0,0,0,3.528-1.44,4.464,4.464,0,0,1-7.14236.2232A5.34239,5.34239,0,0,0,21.80189,10.34211Z" transform="translate(0 0)"/>
  <path class="cls-5" d="M22.09709,22.31564a51.34457,51.34457,0,0,0,5.56557,1.224c1.728.288,3.29038.468,4.608.5976,2.628.2592,4.26238.288,4.26238.288s-1.62-.1872-4.22638-.5976c-1.296-.2088-2.844-.468-4.54317-.81359s-3.6-.756-5.48637-1.3032a29.2541,29.2541,0,0,1-5.24157-1.97278,11.02391,11.02391,0,0,1-2.02319-1.3176,5.15524,5.15524,0,0,1-1.332-1.59839,3.39122,3.39122,0,0,1-.3672-1.64879v-.36a2.238,2.238,0,0,1,.0504-.3384,1.48974,1.48974,0,0,1,.072-.30959,2.4282,2.4282,0,0,1,.0936-.2736,5.89553,5.89553,0,0,1,.33119-.7704c.0864-.1728.1368-.2592.1368-.2592l-.1584.2448a5.37126,5.37126,0,0,0-.40319.72.79773.79773,0,0,1-.1152.2736,1.94492,1.94492,0,0,0-.0936.30959,1.7347,1.7347,0,0,0-.0864.3456,1.4401,1.4401,0,0,0,0,.1872v.1944a3.6,3.6,0,0,0,.288,1.79279,5.33531,5.33531,0,0,0,1.296,1.78559,10.85076,10.85076,0,0,0,2.05919,1.44A25.39463,25.39463,0,0,0,22.09709,22.31564Z" transform="translate(0 0)"/>
  <g class="cls-14">
    <g>
      <path class="cls-5" d="M27.36026,6.43253a3.6,3.6,0,0,0,5.04,3.21118,3.80156,3.80156,0,0,0,2.24639-3.24,3.852,3.852,0,0,0-1.6344-3.04558A3.888,3.888,0,0,0,27.729,4.88144v0q-.0421.07623-.08076.15428A3.679,3.679,0,0,0,27.36026,6.43253Z" transform="translate(0 0)"/>
      <path class="cls-8" d="M27.46826,6.02213a3.528,3.528,0,0,0,4.932,3.12478,3.70078,3.70078,0,0,0,2.16-3.15358,3.72237,3.72237,0,0,0-1.59119-2.952,3.77277,3.77277,0,0,0-5.13455,1.4505l0,.00007q-.05264.09408-.09982.191A3.32622,3.32622,0,0,0,27.46826,6.02213Z" transform="translate(0 0)"/>
      <ellipse class="cls-11" cx="31.19784" cy="6.70613" rx="1.42559" ry="1.41839"/>
      <path class="cls-12" d="M30.28344,6.47573a.92159.92159,0,1,0,.92874-.9144h-.01434a.9144.9144,0,0,0-.9144.9144Z" transform="translate(0 0)"/>
      <path class="cls-9" d="M31.73783,10.8317a5.76,5.76,0,0,0,3.96-1.044,4.77359,4.77359,0,0,1-7.61756-.8064A5.76,5.76,0,0,0,31.73783,10.8317Z" transform="translate(0 0)"/>
      <path class="cls-13" d="M29.81544,5.45333a.6768.6768,0,1,0,.691-.66228h0q-.01071-.00023-.02141-.00011A.66959.66959,0,0,0,29.81544,5.45333Z" transform="translate(0 0)"/>
      <path class="cls-9" d="M32.069,10.16211a4.73759,4.73759,0,0,0,2.97359-1.63439,3.96718,3.96718,0,0,1-6.29277.89279A4.79522,4.79522,0,0,0,32.069,10.16211Z" transform="translate(0 0)"/>
    </g>
  </g>
  <path class="cls-9" d="M34.56022,1.56536a6.563,6.563,0,0,1-7.14956,3.72237C27.49706,5.30933,32.54423,4.07814,34.56022,1.56536Z" transform="translate(0 0)"/>
  <path class="cls-9" d="M25.61067,2.15575c-1.224-.59039-6.156-2.97358-8.15756.324A3.31209,3.31209,0,0,1,20.1027.16136,5.21279,5.21279,0,0,1,25.61067,2.15575Z" transform="translate(0 0)"/>
  <path class="cls-15" d="M11.94515,25.54842c-.8496.468-2.92319,1.24559-2.06639,3.26158a3.77979,3.77979,0,0,0,1.13759,1.28879c.72.4464.0864.6624-.324.6192s-5.328-1.08-3.024-5.19837c.4176-.72,2.304-2.412,4.00318-2.11679C13.50754,23.75563,12.37714,25.30362,11.94515,25.54842Z" transform="translate(0 0)"/>
  <path class="cls-16" d="M44.46736,22.87a7.39437,7.39437,0,0,1,.4608-2.628,6.228,6.228,0,0,1,1.31759-2.16,6.32149,6.32149,0,0,1,2.09519-1.44,7.08493,7.08493,0,0,1,2.81518-.5328,9.12233,9.12233,0,0,1,1.89359.1872,9.2445,9.2445,0,0,1,1.67759.5256l-.77039,2.88a10.01506,10.01506,0,0,0-1.13039-.34559,5.80277,5.80277,0,0,0-1.3824-.1512,2.92316,2.92316,0,0,0-2.42638,1.008,4.104,4.104,0,0,0-.7776,2.664,4.27683,4.27683,0,0,0,.72,2.69278,3.14642,3.14642,0,0,0,2.62078.9576,9.36144,9.36144,0,0,0,1.44-.1152,6.26445,6.26445,0,0,0,1.44-.396l.5112,2.99518a9.051,9.051,0,0,1-1.59839.4608,10.70024,10.70024,0,0,1-2.11679.1944,7.99909,7.99909,0,0,1-3.06-.5328,5.76005,5.76005,0,0,1-2.10239-1.44,5.63744,5.63744,0,0,1-1.20959-2.16A9.17232,9.17232,0,0,1,44.46736,22.87Z" transform="translate(0 0)"/>
  <path class="cls-16" d="M69.53042,22.87724a8.33031,8.33031,0,0,1-.4104,2.77918,6.02655,6.02655,0,0,1-1.28879,2.16,5.63056,5.63056,0,0,1-2.00879,1.38239,6.7825,6.7825,0,0,1-2.628.48959,6.552,6.552,0,0,1-2.592-.49679,5.63056,5.63056,0,0,1-2.00879-1.38239,6.25675,6.25675,0,0,1-1.30318-2.16,7.98472,7.98472,0,0,1-.468-2.77918,7.74688,7.74688,0,0,1,.4824-2.772,6.28556,6.28556,0,0,1,1.30319-2.10239,5.97615,5.97615,0,0,1,2.016-1.37519,7.00562,7.00562,0,0,1,5.12638,0,5.80308,5.80308,0,0,1,2.00879,1.37519,6.19921,6.19921,0,0,1,1.30319,2.16A7.92,7.92,0,0,1,69.53042,22.87724Zm-3.75118,0a4.56481,4.56481,0,0,0-.66961-2.65679,2.232,2.232,0,0,0-1.93679-.972,2.26073,2.26073,0,0,0-1.97277.95759,4.56475,4.56475,0,0,0-.72,2.65678,4.62234,4.62234,0,0,0,.72,2.68559,2.232,2.232,0,0,0,1.944.9936,2.20319,2.20319,0,0,0,1.93679-.9864,4.67985,4.67985,0,0,0,.6984-2.68558Z" transform="translate(0 0)"/>
  <path class="cls-16" d="M77.04,12.74689a2.02322,2.02322,0,0,1-.6552,1.57679,2.28239,2.28239,0,0,1-1.548.576,2.21755,2.21755,0,0,1-1.53358-.5832,1.98,1.98,0,0,1-.6552-1.57679,2.00156,2.00156,0,0,1,.6552-1.57679,2.34718,2.34718,0,0,1,3.08158,0A2.016,2.016,0,0,1,77.04,12.74689ZM76.67278,29.35h-3.672V16.46207h3.672Z" transform="translate(0 0)"/>
  <path class="cls-16" d="M80.72636,16.91567a20.79964,20.79964,0,0,1,2.412-.504,20.48417,20.48417,0,0,1,3.10318-.2304,7.71841,7.71841,0,0,1,2.75039.4392,4.11845,4.11845,0,0,1,1.728,1.20959,4.75188,4.75188,0,0,1,.90719,1.86479,9.88568,9.88568,0,0,1,.2736,2.39759V29.3716h-3.672V22.53884a4.92479,4.92479,0,0,0-.468-2.49839,1.908,1.908,0,0,0-1.74959-.72,6.768,6.768,0,0,0-.83519.036c-.29519.036-.5616.0504-.792.0792V29.386H80.712Z" transform="translate(0 0)"/>
  <path class="cls-16" d="M105.58781,18.95326c-.3024.324-.72.76319-1.2024,1.31759s-1.044,1.16639-1.62,1.836-1.1592,1.37519-1.74239,2.10959-1.116,1.44-1.59839,2.16h6.27117V29.4148H94.97508v-2.16c.3528-.5904.76319-1.21679,1.25279-1.89359s.9936-1.36079,1.52639-2.04479,1.06559-1.35359,1.59121-1.99439,1.01519-1.23119,1.44-1.74959H95.26308V16.49087h10.30314Z" transform="translate(0 0)"/>
  <path class="cls-16" d="M112.81657,12.79009a2.02311,2.02311,0,0,1-.65519,1.57679,2.27519,2.27519,0,0,1-1.54079.576,2.22483,2.22483,0,0,1-1.5408-.5472,1.98,1.98,0,0,1-.65519-1.57679,2.0016,2.0016,0,0,1,.65519-1.57679,2.34719,2.34719,0,0,1,3.08159,0A2.016,2.016,0,0,1,112.81657,12.79009Zm-.36719,16.60311h-3.672V16.50527h3.672Z" transform="translate(0 0)"/>
  <path class="cls-16" d="M121.67972,29.6524a9.30252,9.30252,0,0,1-2.59918-.3456,3.888,3.888,0,0,1-1.5768-.9A2.95929,2.95929,0,0,1,116.719,27.01a7.58863,7.58863,0,0,1-.20879-1.84319V10.9757l3.672-.58319V24.43242a5.50658,5.50658,0,0,0,.072.8856,1.44017,1.44017,0,0,0,.288.6552,1.49746,1.49746,0,0,0,.5976.44639,3.43422,3.43422,0,0,0,1.06559.2232Z" transform="translate(0 0)"/>
  <path class="cls-16" d="M130.08926,29.6596a9.04341,9.04341,0,0,1-2.59919-.3456,3.87381,3.87381,0,0,1-1.57679-.8928,2.95917,2.95917,0,0,1-.78479-1.39679,7.65361,7.65361,0,0,1-.2088-1.82879V11.0117l3.672-.5832V24.46123a5.3718,5.3718,0,0,0,.072.88559,1.4976,1.4976,0,0,0,.288.66239,1.43994,1.43994,0,0,0,.6048.4392,3.3338,3.3338,0,0,0,1.05839.2232Z" transform="translate(0 0)"/>
  <path class="cls-16" d="M138.362,16.19567a8.77667,8.77667,0,0,1,2.71439.3744,4.32,4.32,0,0,1,1.73519,1.05119,3.91686,3.91686,0,0,1,.92159,1.67039,8.22908,8.22908,0,0,1,.2664,2.16V29.0692c-.5256.108-1.26.2448-2.196.396a20.80871,20.80871,0,0,1-3.39839.2304,10.57706,10.57706,0,0,1-2.28238-.2232,4.78807,4.78807,0,0,1-1.75679-.72,3.29032,3.29032,0,0,1-1.16639-1.31759,4.55754,4.55754,0,0,1-.3888-1.98,3.70065,3.70065,0,0,1,.4608-1.91519,3.47753,3.47753,0,0,1,1.23841-1.224,5.52953,5.52953,0,0,1,1.74957-.6696,10.08048,10.08048,0,0,1,2.04478-.2088,11.126,11.126,0,0,1,1.27439.0648,6.12793,6.12793,0,0,1,.9.1584v-.3456a1.99432,1.99432,0,0,0-.5688-1.49039,2.75764,2.75764,0,0,0-1.9728-.5688,12.08269,12.08269,0,0,0-1.84318.1368,7.92022,7.92022,0,0,0-1.5768.3744l-.468-2.93758c.216-.0648.48239-.1368.79919-.2088s.6696-.1368,1.0512-.1944.7776-.108,1.1952-.144A12.34217,12.34217,0,0,1,138.362,16.19567Zm.28079,10.68474h1.03681a5.33747,5.33747,0,0,0,.792-.072V24.01483c-.144,0-.36718-.0648-.66238-.1008a6.73991,6.73991,0,0,0-.8136-.0504,6.88364,6.88364,0,0,0-.972.0648,2.40474,2.40474,0,0,0-.8064.2304,1.31766,1.31766,0,0,0-.54.468,1.29607,1.29607,0,0,0-.2016.72,1.25282,1.25282,0,0,0,.58321,1.188,3.24,3.24,0,0,0,1.584.34558Z" transform="translate(0 0)"/>
</svg>
