<svg id="Fortune_Logo" xmlns="http://www.w3.org/2000/svg" width="120" height="27.81738" viewBox="0 0 120 27.81738">
  <path id="Fortune_Logo-2" data-name="Fortune_Logo" d="M15.419,6.36872V21.38547a6.36872,6.36872,0,1,0,12.73743,0V6.36872a6.36872,6.36872,0,1,0-12.73743,0m4.55866,15.01675V6.36872A1.72961,1.72961,0,0,1,21.68743,4.6195q.08376-.001.16732.0062a1.68938,1.68938,0,0,1,1.743,1.634q.00177.05451,0,.109V21.38547a1.76982,1.76982,0,0,1-1.743,1.743,1.81,1.81,0,0,1-1.877-1.74054l-.0001-.00248M64.89386.3352H52.02235V4.89386h4.15642V27.28492h4.55866V4.89385h4.15643Zm13.40782,0V21.38547a1.743,1.743,0,0,1-3.486.00361V.3352H70.12291V21.38547a6.43576,6.43576,0,0,0,12.87151,0V.3352ZM120,4.89385V.3352H108.73743V27.28492H120V22.72626h-6.70391V15.75419h4.2905V11.19553h-4.2905V4.89385ZM47.73184,27.28492H42.905l-3.352-12.73743a3.66033,3.66033,0,0,0,2.94972-3.62012V6.771a1.83687,1.83687,0,0,0-1.79574-1.8771q-.04066-.0009-.08135,0h-1.743V27.28492H34.324V.3352H40.6257a6.38211,6.38211,0,0,1,6.43575,6.16759V10.7933A7.2,7.2,0,0,1,44.514,16.69274ZM98.54749.3352V15.0838L93.85475.3352H89.162V27.28492h4.69274V14.14525l4.2905,13.13967h5.095V.3352ZM0,.73743V27.68715H4.82682V16.15642H9.2514V11.59777H4.82682V5.29609h6.97206V.73743Z"/>
</svg>
