<svg id="Time_Logo" xmlns="http://www.w3.org/2000/svg" width="100" height="30.51376" viewBox="0 0 100 30.51376">
  <defs>
    <style>
      .cls-1 {
        fill: #e90606;
      }
    </style>
  </defs>
  <path class="cls-1" d="M47.71027,0s-1.125.02356-1.777.01254c-.027.27362-.34122,2.75313-.61149,4.74768-.31082,1.84563-2.77368,15.53664-3.60815,19.635-.21959,1.23752-.89866,4.7335-.96284,5.08282-.7838.09359-1.70948.18007-2.31422.20338-.08108.00271-.21621.02906-.2804.02906v.7098c.07432-.003.46622.027.74325.0152.66554-.02128,2.55407-.11081,2.91219-.11081,1.35812,0,2.26353.08987,3.5203.11486.0169,0,.36149-.00135.51352-.0206v-.71724c-.10473,0-.24324-.00338-.32433-.00338a23.18345,23.18345,0,0,1-2.32435-.17939c.07771-.46893,1.23312-7.55954,1.78718-10.395,1.05406-5.24836,1.7838-8.968,1.7838-8.968l.19595.46183,8.32778,19.84884,1.52029.00777S57.68,28.325,58.71038,25.91414c.027-.05709.10135-.22973.20608-.47635,1.08109-2.50341,6.43925-15.2086,6.43925-15.2086s.05068.22872.13514.63784c.51013,2.49023,2.2365,11.46464,2.60475,13.62987.1723,1.11386.33447,2.2436.42906,2.90543.13852.93718.22973,1.85441.22973,2.11793-.16892.00777-1.86488.16115-2.50678.18885-.09122-.003-.26351.00541-.27365.0071v.722c.22973,0,.45271.01014.67568.00507,1.31083-.025,2.571-.1277,3.8818-.127,1.473.00135,3.86153.13007,5.39195.13987.1723,0,.47973-.0152.47973-.0152v-.7294c-.08783-.00068-.473-.01959-.61487-.03074-.68582-.05372-1.84123-.16082-2.13516-.18041,0,0-.18919-1.04832-.43919-2.25914-1-4.84363-3.848-19.56642-4.28383-23.18909C68.78142,2.807,68.35912.01118,68.35912.01118L66.64626.01065s-.875,2.5106-1.67231,4.79971c-.54392,1.56421-1.2838,3.49531-1.848,4.97606-2.78382,7.31629-5.90546,14.13393-5.90546,14.13393S50.58529,8.08843,50.23394,7.17288C49.87921,6.257,47.71027.00018,47.71027.00018ZM.01385.0066.02838,1.68,0,5.755l.44146-.0125L.48764,2.11814c0-.0001,2.42067-.021,2.73374-.02054l4.5139.002,2.9132.01453.00473,25.20532.00068,2.177-.06149.00844c-.38784.03007-1.88008.12129-2.48617.14325-.13581.00439-.22264.00777-.2375.00608l.0027.7375c.10946.00541.4044.01251.44325.01115,1.4338-.01858,3.374-.14324,4.74971-.14189,1.39765.00068,3.36456.13649,4.5818.15068.12061.00067.26351-.01115.37939-.01115V29.709l-.151.00135c-.38784-.00169-2.5328-.13987-2.75476-.16892-.00912-.33818-.049-1.97063-.049-2.00678L15.0813,2.11138l2.21793-.00587,5.78688.00395,1.93144.02638c.01284.138.11047,1.97388.10878,2.02388-.00439.13344.0723,1.501.06926,1.83751l.45778.00541L25.6206,1.881,25.64154.027C23.94085.07326,19.60668.1315,12.88026.128,7.11163.12441,1.55245.076.01392.00653ZM26.95534.0132l.00709.7219c.22839.01239,1.571.13118,1.89732.14713.26048.03189.624.06452.88413.08973,0,.23111.004,1.826.00777,2.45539.04358,5.96594.00642,19.15121-.01115,23.81646-.0054,1.349-.00912,2.21826-.00912,2.21826a6.19081,6.19081,0,0,1-.93514.09494c-.34224.02331-1.5686.12635-1.84225.13209v.722c.11351,0,.32162.024.4402.023,1.38819.00034,3.31828-.172,4.74025-.17094,1.43718.001,3.35612.176,4.48789.17635l-.00338.00068c.098.00135.33108-.02433.42905-.024v-.72163H36.95c-.04392-.00946-1.50339-.07095-1.85813-.10777a9.85994,9.85994,0,0,1-1-.10811c-.00338-.01419-.00675-.23007-.00675-.58987.00338-.34156.00338-.90947.00338-1.525.00338-4.70579.01689-18.68194.02027-24.02422,0-1.03248.00338-1.87137.00338-2.32138.31419-.01986,1.598-.15409,2.05745-.19463.02027-.002.62838-.037.87839-.05213V.01914c-1.571-.00057-3.6497.1222-5.18282.12142-1.6034-.001-3.57876-.12676-4.90985-.12735ZM99.65877.03366s-.16554.00071-.473.00132c-1.05068.00452-3.7399.02425-6.8852.04155C90.36813.08775,88.858.10325,86.8681.10227c-1.39528.01636-3.348.07014-4.55409.068-1.9257-.00314-3.49666-.12183-4.3514-.12537-.40541-.0018-.63176.01348-.74325.00658.00676.01024.00676.71265.00676.71265a2.07971,2.07971,0,0,0,.36149.02638c.48311.0325,1.38853.10564,1.848.16629.09122.01672.24662.04236.67906.0904-.00338.15984.02027,1.9685.01689,3.05517,0,1.00677-.01013,23.46983-.01013,23.46983,0,.03649-.05068,1.80644-.05068,1.94934a23.07007,23.07007,0,0,1-2.72975.21318h-.14865v.71453c.07095-.00034.39865.0125.58446.0125.80744-.00034,2.88854-.12871,5.01356-.13007,1.48988-.00135,3.12841.0544,4.78721.07805,2.04394.02837,4.11153.02972,5.96966.05608,3.06422.04324,5.54736.047,6.35479.048,0,0,.098-5.6835.098-6.14162l-.44257.00507c0,.48345-.17906,2.28381-.18581,2.36252-.05744.67771-.11825,1.38786-.16554,1.73786,0,0-.21622.01723-.32095.0152-.50338-.00946-2.11151.049-2.1453.049l-7.17237.003-5.03721-.08446-.03379-1.39731-.00337-10.84876c.89865-.03041,2.27028-.078,3.10475-.07635.70947.00135,2.38178-.03852,3.3176-.03649,2.27368.004,4.294.01858,4.45613.02331.375.01081,1.071.03378,1.33448.05.01013.09561.04054.24493.04392.28716.13513.83076.20946,1.4061.30068,2.22165.01352.07331.02027.14426.03041.21115H97.598s.01352-.29156.00676-.473c-.01014-.63953-.05068-1.91522-.05068-3.32909-.00338-.98007.05406-2.4784.06081-3.199.00338-.19493-.02027-.33344-.02027-.38919l-.473.00912a3.52961,3.52961,0,0,1-.04054.38548c-.04054.53717-.19257,1.22366-.31419,1.948a1.57727,1.57727,0,0,0-.05744.21622c-.05406.01824-1.53717.0973-1.66894.09628-.05067-.00033-2.20948.06014-2.24664.06014l-8.29738-.03108L84.51,2.22563s1.05407-.03719,1.348-.03561c1.196.00021,3.14192-.01067,5.12506-.0079,2.90205.00351,5.71965.02159,5.72641.02571.01689.00827.875.0202.89191.035.02027.01615,1.0946.04828,1.35811.05676,0,0,.02027.08906.03379.20125.11825,1.26133.21622,2.75932.26013,3.29007l.00339.2125.44257-.00135c0-.7767-.04054-3.1553-.04731-4.66863-.00338-.48605.00676-.88186.00676-1.10707V.03365Z"/>
</svg>
