<svg id="Layer_1" data-name="Layer 1" xmlns="http://www.w3.org/2000/svg" xmlns:xlink="http://www.w3.org/1999/xlink" viewBox="0 0 670.82 138.06"><defs><style>.cls-1{fill:#1c1c39;}.cls-2{fill:url(#linear-gradient);}.cls-3{fill:url(#linear-gradient-2);}</style><linearGradient id="linear-gradient" x1="31.37" y1="69.03" x2="94.43" y2="69.03" gradientUnits="userSpaceOnUse"><stop offset="0" stop-color="#79519c"/><stop offset="0.37" stop-color="#6159a3"/><stop offset="1" stop-color="#3068b0"/></linearGradient><linearGradient id="linear-gradient-2" x1="0.01" y1="69.03" x2="138.07" y2="69.03" xlink:href="#linear-gradient"/></defs><title>Coinfluence_logo</title><path class="cls-1" d="M156.14,66.64c0-18.46,13.71-32.44,32.44-32.44,15,0,26.6,9.23,30.28,22.58H205.15c-3-6.45-9-10.39-16.66-10.39-11.56,0-19.44,8.51-19.44,20.25s7.88,20.24,19.44,20.24c7.7,0,13.7-3.94,16.66-10.39h13.71c-3.68,13.35-15.32,22.58-30.28,22.58C169.85,99.07,156.14,85.09,156.14,66.64Z" transform="translate(-0.01 0)"/><path class="cls-1" d="M273.76,73.35c0,14.88-11.29,25.72-25.71,25.72s-25.62-10.93-25.62-25.72a25.67,25.67,0,1,1,51.33,0Zm-38.43,0c0,8.16,5.55,13.53,12.72,13.53s12.72-5.37,12.72-13.53-5.56-13.52-12.72-13.52S235.33,65.29,235.33,73.35Z" transform="translate(-0.01 0)"/><path class="cls-1" d="M293.37,33.49c0,4.39-3.32,7.61-8,7.61a7.63,7.63,0,0,1-8-7.61c0-4.39,3.49-7.53,8-7.53C290.05,26,293.37,29.1,293.37,33.49ZM278.94,48.72h12.81V98H278.94Z" transform="translate(-0.01 0)"/><path class="cls-1" d="M344.25,67.08V98H331.44V69.86c0-6.45-2.42-10-9.23-10C315,59.83,311.1,64,311.1,72.1V98H298.29V48.72H311.1v6.72a17.7,17.7,0,0,1,15.32-7.8C337.53,47.64,344.25,55,344.25,67.08Z" transform="translate(-0.01 0)"/><path class="cls-1" d="M368.69,48.54v.18h16.4V60.81h-16.4V98H355.88V60.81H347.1V48.72h8.78v-.81c0-14.06,9.86-20,20.07-20a30.76,30.76,0,0,1,11.65,2.24l-2.33,10.4-1.7-.45a22.61,22.61,0,0,0-6.19-1C371.56,39.13,368.69,42.18,368.69,48.54Z" transform="translate(-0.01 0)"/><path class="cls-1" d="M390.19,29H403V98H390.19Z" transform="translate(-0.01 0)"/><path class="cls-1" d="M454.6,48.72V98H441.79V91.18a17.62,17.62,0,0,1-15.23,7.89c-10.84,0-17.56-7.44-17.56-19.44V48.72h12.81V76.85c0,6.45,2.42,10,9.05,10,7.07,0,10.93-4.21,10.93-12.27V48.72Z" transform="translate(-0.01 0)"/><path class="cls-1" d="M510.67,76.67H472.86c.81,7.88,6.19,11.82,12.82,11.82,4.92,0,9.22-2.24,10.92-6.18h13.26c-3.67,11.65-13.52,16.76-24.1,16.76-15.4,0-26-10.93-26-25.63s10.67-25.8,25.72-25.8C501.8,47.64,511.92,60.45,510.67,76.67Zm-37.18-9.41h23.56c-1.43-5.37-5.46-9.05-11.64-9.05S475.1,62,473.49,67.26Z" transform="translate(-0.01 0)"/><path class="cls-1" d="M561.54,67.08V98H548.73V69.86c0-6.45-2.42-10-9.22-10-7.26,0-11.11,4.21-11.11,12.27V98H515.59V48.72H528.4v6.72a17.69,17.69,0,0,1,15.32-7.8C554.83,47.64,561.54,55,561.54,67.08Z" transform="translate(-0.01 0)"/><path class="cls-1" d="M566.37,73.35c0-14.6,10.84-25.71,25.71-25.71,12,0,22.67,7.26,24.55,19.8H603.46c-1.52-5.37-6.18-8-11.38-8-7.79,0-12.81,5.73-12.72,13.88-.09,8.25,5.11,13.89,12.63,13.89,5.29,0,10-2.69,11.47-8.06h13.17c-2,13-12.81,19.89-24.64,19.89C577.21,99.07,566.37,88,566.37,73.35Z" transform="translate(-0.01 0)"/><path class="cls-1" d="M670.73,76.67H632.92c.81,7.88,6.18,11.82,12.81,11.82,4.93,0,9.23-2.24,10.93-6.18h13.26c-3.67,11.65-13.53,16.76-24.1,16.76-15.41,0-26-10.93-26-25.63s10.66-25.8,25.71-25.8C661.86,47.64,672,60.45,670.73,76.67Zm-37.18-9.41h23.56c-1.43-5.37-5.46-9.05-11.65-9.05S635.16,62,633.55,67.26Z" transform="translate(-0.01 0)"/><path class="cls-2" d="M81.29,81.28h0A64.3,64.3,0,0,1,69,90.88,64.49,64.49,0,0,1,47.2,69,64.49,64.49,0,0,1,69,47.18a63.9,63.9,0,0,1,12.25,9.6c1.13,1.12,2.12,2.36,3.16,3.56l10-9.79c-1.07-1.22-2.17-2.43-3.32-3.59A79,79,0,0,0,72.29,33.07L69,31.36,65.8,33.07A78.47,78.47,0,0,0,33.09,65.78L31.37,69l1.72,3.24A78.47,78.47,0,0,0,65.8,105L69,106.7,72.29,105A78.44,78.44,0,0,0,91.11,91.09h0c1.15-1.15,2.25-2.36,3.32-3.58l-10-9.79C83.41,78.92,82.42,80.15,81.29,81.28Z" transform="translate(-0.01 0)"/><path class="cls-3" d="M136.36,65.79a153.61,153.61,0,0,0-27.21-36.87A153.45,153.45,0,0,0,72.29,1.72L69,0,65.8,1.72A153.71,153.71,0,0,0,1.73,65.78L0,69l1.72,3.24a153.61,153.61,0,0,0,27.21,36.87,153.06,153.06,0,0,0,36.86,27.2L69,138.06l3.25-1.72a153.45,153.45,0,0,0,36.86-27.2h0a154,154,0,0,0,27.21-36.87L138.07,69Zm-37,33.54a140.13,140.13,0,0,1-30.3,23,139.83,139.83,0,0,1-30.29-23,140.13,140.13,0,0,1-23-30.3A139.65,139.65,0,0,1,69,15.76a139.77,139.77,0,0,1,30.3,23,140.13,140.13,0,0,1,23,30.3A140.13,140.13,0,0,1,99.34,99.33Z" transform="translate(-0.01 0)"/></svg>